%
M48
M72
T01C0.0236
T02C0.0276
T03C0.0315
T04C0.0440
T05C0.0787
T06C0.0906
%
T01
X18680Y8375
X12430Y9500
X4555Y3688
X12930Y7813
X13993Y7125
X14055Y8125
X15555Y6438
X17430Y6500
X18259Y5201
X17243Y10188
X15930Y7438
X5118Y10125
X15243Y8500
X4805Y8500
X8118Y8500
X13680Y4000
X4618Y4250
X5555Y5250
X2680Y4000
X6680Y6125
X13618Y8563
X8430Y5375
X6680Y6625
X8430Y3625
X13930Y3625
X10430Y6438
X7055Y7500
X5680Y3313
X4993Y7500
X10555Y7563
X6743Y8000
X8118Y6125
X5993Y5063
X15680Y4438
X16618Y10313
X14743Y9125
X13243Y8938
X12180Y8063
X18180Y9250
X9930Y7063
X9180Y9438
X8243Y10813
X10493Y8250
X17180Y7563
X11993Y6438
X11993Y5313
X3305Y3625
X5805Y4625
X12868Y9188
X11993Y8563
X15430Y8000
X9930Y5625
X2180Y4625
X17180Y6938
X17430Y4816
X19743Y6500
X16305Y8500
T02
X6868Y3438
X14058Y5192
T03
X7493Y10625
X2180Y11250
X11743Y11625
X13993Y13000
X18180Y4188
X7993Y12188
X15555Y3750
T04
X7231Y14109
X8231Y14109
X9231Y14109
X10231Y14109
X11231Y14109
X12231Y14109
X13231Y14109
X14231Y14109
T05
X10737Y12366
T06
X19639Y4529
M30
