G75*
%MOIN*%
%OFA0B0*%
%FSLAX24Y24*%
%IPPOS*%
%LPD*%
%AMOC8*
5,1,8,0,0,1.08239X$1,22.5*
%
%ADD10C,0.0040*%
%ADD11C,0.0020*%
%ADD12C,0.0079*%
%ADD13R,0.0017X0.0008*%
%ADD14R,0.0025X0.0008*%
%ADD15R,0.0043X0.0008*%
%ADD16R,0.0051X0.0008*%
%ADD17R,0.0017X0.0008*%
%ADD18R,0.0059X0.0008*%
%ADD19R,0.0076X0.0008*%
%ADD20R,0.0085X0.0008*%
%ADD21R,0.0093X0.0008*%
%ADD22R,0.0034X0.0008*%
%ADD23R,0.0068X0.0008*%
%ADD24R,0.0110X0.0008*%
%ADD25R,0.0136X0.0008*%
%ADD26R,0.0145X0.0008*%
%ADD27R,0.0144X0.0008*%
%ADD28R,0.0060X0.0008*%
%ADD29R,0.0153X0.0008*%
%ADD30R,0.0102X0.0008*%
%ADD31R,0.0119X0.0008*%
%ADD32R,0.0127X0.0008*%
%ADD33R,0.0008X0.0008*%
%ADD34R,0.0102X0.0008*%
%ADD35R,0.0161X0.0008*%
%ADD36R,0.0178X0.0008*%
%ADD37R,0.0187X0.0008*%
%ADD38R,0.0170X0.0008*%
%ADD39R,0.0195X0.0008*%
%ADD40R,0.0323X0.0008*%
%ADD41R,0.0204X0.0008*%
%ADD42R,0.0289X0.0008*%
%ADD43R,0.0213X0.0008*%
%ADD44R,0.0246X0.0008*%
%ADD45R,0.0221X0.0008*%
%ADD46R,0.0230X0.0008*%
%ADD47R,0.0238X0.0008*%
%ADD48R,0.0255X0.0008*%
%ADD49R,0.0263X0.0008*%
%ADD50R,0.0272X0.0008*%
%ADD51R,0.0280X0.0008*%
%ADD52R,0.0289X0.0008*%
%ADD53R,0.0297X0.0008*%
%ADD54R,0.0306X0.0008*%
%ADD55R,0.0315X0.0008*%
%ADD56R,0.0034X0.0008*%
%ADD57R,0.0348X0.0008*%
%ADD58R,0.0119X0.0008*%
%ADD59R,0.0229X0.0008*%
%ADD60R,0.0332X0.0008*%
%ADD61R,0.0340X0.0008*%
%ADD62R,0.0357X0.0008*%
%ADD63R,0.0365X0.0008*%
%ADD64R,0.0374X0.0008*%
%ADD65R,0.0382X0.0008*%
%ADD66R,0.0331X0.0008*%
%ADD67R,0.0391X0.0008*%
%ADD68R,0.0400X0.0008*%
%ADD69R,0.0357X0.0008*%
%ADD70R,0.0408X0.0008*%
%ADD71R,0.0374X0.0008*%
%ADD72R,0.0272X0.0008*%
%ADD73R,0.0416X0.0008*%
%ADD74R,0.0399X0.0008*%
%ADD75R,0.0417X0.0008*%
%ADD76R,0.0748X0.0008*%
%ADD77R,0.0740X0.0008*%
%ADD78R,0.0162X0.0008*%
%ADD79R,0.0722X0.0008*%
%ADD80R,0.0714X0.0008*%
%ADD81R,0.0705X0.0008*%
%ADD82R,0.0688X0.0008*%
%ADD83R,0.1198X0.0008*%
%ADD84R,0.1181X0.0008*%
%ADD85R,0.1173X0.0008*%
%ADD86R,0.1165X0.0008*%
%ADD87R,0.1156X0.0008*%
%ADD88R,0.0247X0.0008*%
%ADD89R,0.1139X0.0008*%
%ADD90R,0.1130X0.0008*%
%ADD91R,0.0527X0.0008*%
%ADD92R,0.1113X0.0008*%
%ADD93R,0.0544X0.0008*%
%ADD94R,0.0578X0.0008*%
%ADD95R,0.1097X0.0008*%
%ADD96R,0.0875X0.0008*%
%ADD97R,0.1088X0.0008*%
%ADD98R,0.0858X0.0008*%
%ADD99R,0.0850X0.0008*%
%ADD100R,0.1071X0.0008*%
%ADD101R,0.0841X0.0008*%
%ADD102R,0.1028X0.0008*%
%ADD103R,0.0833X0.0008*%
%ADD104R,0.1011X0.0008*%
%ADD105R,0.0816X0.0008*%
%ADD106R,0.0986X0.0008*%
%ADD107R,0.0808X0.0008*%
%ADD108R,0.0969X0.0008*%
%ADD109R,0.0799X0.0008*%
%ADD110R,0.0960X0.0008*%
%ADD111R,0.0782X0.0008*%
%ADD112R,0.0935X0.0008*%
%ADD113R,0.0773X0.0008*%
%ADD114R,0.0926X0.0008*%
%ADD115R,0.0765X0.0008*%
%ADD116R,0.0910X0.0008*%
%ADD117R,0.0739X0.0008*%
%ADD118R,0.0892X0.0008*%
%ADD119R,0.0731X0.0008*%
%ADD120R,0.0884X0.0008*%
%ADD121R,0.0867X0.0008*%
%ADD122R,0.0697X0.0008*%
%ADD123R,0.0680X0.0008*%
%ADD124R,0.0663X0.0008*%
%ADD125R,0.0629X0.0008*%
%ADD126R,0.0790X0.0008*%
%ADD127R,0.0467X0.0008*%
%ADD128R,0.0756X0.0008*%
%ADD129R,0.0612X0.0008*%
%ADD130R,0.0595X0.0008*%
%ADD131R,0.0569X0.0008*%
%ADD132R,0.0553X0.0008*%
%ADD133R,0.0077X0.0008*%
%ADD134C,0.0060*%
%ADD135C,0.0030*%
%ADD136C,0.0080*%
%ADD137C,0.0000*%
D10*
X009538Y004283D02*
X009798Y004283D01*
X009885Y004370D01*
X009885Y004717D01*
X009798Y004804D01*
X009538Y004804D01*
X009538Y004283D01*
X010053Y004370D02*
X010140Y004283D01*
X010314Y004283D01*
X010400Y004370D01*
X010400Y004457D01*
X010314Y004543D01*
X010140Y004543D01*
X010053Y004630D01*
X010053Y004717D01*
X010140Y004804D01*
X010314Y004804D01*
X010400Y004717D01*
X010569Y004804D02*
X010829Y004804D01*
X010916Y004717D01*
X010916Y004630D01*
X010829Y004543D01*
X010569Y004543D01*
X010569Y004283D02*
X010829Y004283D01*
X010916Y004370D01*
X010916Y004457D01*
X010829Y004543D01*
X011085Y004457D02*
X011258Y004630D01*
X011345Y004630D01*
X011514Y004630D02*
X011514Y004370D01*
X011601Y004283D01*
X011861Y004283D01*
X011861Y004630D01*
X012030Y004630D02*
X012203Y004630D01*
X012117Y004717D02*
X012117Y004370D01*
X012203Y004283D01*
X012889Y004283D02*
X013236Y004630D01*
X013236Y004717D01*
X013150Y004804D01*
X012976Y004804D01*
X012889Y004717D01*
X012889Y004283D02*
X013236Y004283D01*
X011085Y004283D02*
X011085Y004630D01*
X010569Y004804D02*
X010569Y004283D01*
D11*
X010667Y004028D02*
X010767Y004028D01*
X010801Y003995D01*
X010801Y003862D01*
X010767Y003828D01*
X010667Y003828D01*
X010667Y004028D01*
X010870Y003928D02*
X010903Y003962D01*
X010970Y003962D01*
X011003Y003928D01*
X011003Y003895D01*
X010870Y003895D01*
X010870Y003862D02*
X010870Y003928D01*
X010870Y003862D02*
X010903Y003828D01*
X010970Y003828D01*
X011072Y003828D02*
X011172Y003828D01*
X011206Y003862D01*
X011172Y003895D01*
X011106Y003895D01*
X011072Y003928D01*
X011106Y003962D01*
X011206Y003962D01*
X011275Y003962D02*
X011308Y003962D01*
X011308Y003828D01*
X011275Y003828D02*
X011342Y003828D01*
X011410Y003862D02*
X011443Y003828D01*
X011543Y003828D01*
X011543Y003795D02*
X011543Y003962D01*
X011443Y003962D01*
X011410Y003928D01*
X011410Y003862D01*
X011477Y003761D02*
X011510Y003761D01*
X011543Y003795D01*
X011613Y003828D02*
X011613Y003962D01*
X011713Y003962D01*
X011746Y003928D01*
X011746Y003828D01*
X011628Y003698D02*
X011562Y003698D01*
X011528Y003665D01*
X011528Y003532D01*
X011562Y003498D01*
X011628Y003498D01*
X011662Y003532D01*
X011662Y003598D01*
X011595Y003598D01*
X011662Y003665D02*
X011628Y003698D01*
X011731Y003598D02*
X011764Y003632D01*
X011831Y003632D01*
X011864Y003598D01*
X011864Y003532D01*
X011831Y003498D01*
X011764Y003498D01*
X011731Y003532D01*
X011731Y003598D01*
X011933Y003565D02*
X012000Y003632D01*
X012033Y003632D01*
X012102Y003598D02*
X012135Y003632D01*
X012236Y003632D01*
X012236Y003698D02*
X012236Y003498D01*
X012135Y003498D01*
X012102Y003532D01*
X012102Y003598D01*
X011933Y003632D02*
X011933Y003498D01*
X011947Y003317D02*
X012020Y003317D01*
X012057Y003281D01*
X012057Y003244D01*
X011910Y003244D01*
X011910Y003281D02*
X011947Y003317D01*
X011910Y003281D02*
X011910Y003207D01*
X011947Y003171D01*
X012020Y003171D01*
X012131Y003171D02*
X012241Y003171D01*
X012278Y003207D01*
X012241Y003244D01*
X012168Y003244D01*
X012131Y003281D01*
X012168Y003317D01*
X012278Y003317D01*
X012352Y003281D02*
X012389Y003317D01*
X012499Y003317D01*
X012573Y003317D02*
X012610Y003317D01*
X012610Y003171D01*
X012646Y003171D02*
X012573Y003171D01*
X012499Y003207D02*
X012462Y003244D01*
X012389Y003244D01*
X012352Y003281D01*
X012352Y003171D02*
X012462Y003171D01*
X012499Y003207D01*
X012610Y003391D02*
X012610Y003427D01*
X012641Y003498D02*
X012641Y003598D01*
X012607Y003632D01*
X012507Y003632D01*
X012507Y003498D01*
X012438Y003498D02*
X012338Y003498D01*
X012305Y003532D01*
X012338Y003565D01*
X012438Y003565D01*
X012438Y003598D02*
X012438Y003498D01*
X012438Y003598D02*
X012405Y003632D01*
X012338Y003632D01*
X012320Y003761D02*
X012287Y003761D01*
X012320Y003761D02*
X012354Y003795D01*
X012354Y003962D01*
X012220Y003962D02*
X012220Y003862D01*
X012254Y003828D01*
X012354Y003828D01*
X012151Y003862D02*
X012151Y003928D01*
X012118Y003962D01*
X012018Y003962D01*
X012018Y004028D02*
X012018Y003828D01*
X012118Y003828D01*
X012151Y003862D01*
X011836Y003317D02*
X011689Y003317D01*
X011615Y003317D02*
X011505Y003244D01*
X011615Y003171D01*
X011689Y003171D02*
X011836Y003171D01*
X011836Y003317D02*
X011689Y003171D01*
X011505Y003171D02*
X011505Y003391D01*
X011431Y003317D02*
X011431Y003171D01*
X011321Y003171D01*
X011284Y003207D01*
X011284Y003317D01*
X011210Y003317D02*
X011100Y003317D01*
X011063Y003281D01*
X011100Y003244D01*
X011173Y003244D01*
X011210Y003207D01*
X011173Y003171D01*
X011063Y003171D01*
X010989Y003171D02*
X010952Y003171D01*
X010952Y003207D01*
X010989Y003207D01*
X010989Y003171D01*
X010878Y003171D02*
X010842Y003207D01*
X010842Y003354D01*
X010878Y003317D02*
X010805Y003317D01*
X010731Y003317D02*
X010731Y003171D01*
X010621Y003171D01*
X010584Y003207D01*
X010584Y003317D01*
X010510Y003317D02*
X010473Y003317D01*
X010400Y003244D01*
X010400Y003171D02*
X010400Y003317D01*
X010326Y003281D02*
X010289Y003317D01*
X010179Y003317D01*
X010179Y003391D02*
X010179Y003171D01*
X010289Y003171D01*
X010326Y003207D01*
X010326Y003281D01*
X010105Y003317D02*
X009995Y003317D01*
X009958Y003281D01*
X009995Y003244D01*
X010068Y003244D01*
X010105Y003207D01*
X010068Y003171D01*
X009958Y003171D01*
X009884Y003171D02*
X009774Y003171D01*
X009737Y003207D01*
X009737Y003281D01*
X009774Y003317D01*
X009884Y003317D01*
X009884Y003391D02*
X009884Y003171D01*
X009663Y003391D02*
X009516Y003171D01*
X009295Y003171D02*
X009442Y003391D01*
X009435Y003498D02*
X009401Y003532D01*
X009401Y003598D01*
X009435Y003632D01*
X009535Y003632D01*
X009535Y003698D02*
X009535Y003498D01*
X009435Y003498D01*
X009332Y003565D02*
X009199Y003565D01*
X009199Y003598D02*
X009232Y003632D01*
X009299Y003632D01*
X009332Y003598D01*
X009332Y003565D01*
X009299Y003498D02*
X009232Y003498D01*
X009199Y003532D01*
X009199Y003598D01*
X009097Y003632D02*
X009097Y003498D01*
X009064Y003498D02*
X009130Y003498D01*
X009097Y003632D02*
X009064Y003632D01*
X008995Y003632D02*
X008961Y003632D01*
X008895Y003565D01*
X008895Y003498D02*
X008895Y003632D01*
X008826Y003598D02*
X008760Y003598D01*
X008793Y003665D02*
X008793Y003498D01*
X008691Y003498D02*
X008658Y003532D01*
X008658Y003665D01*
X008625Y003632D02*
X008691Y003632D01*
X008793Y003665D02*
X008826Y003698D01*
X009097Y003698D02*
X009097Y003732D01*
X009074Y003317D02*
X008963Y003317D01*
X008963Y003097D01*
X008963Y003171D02*
X009074Y003171D01*
X009110Y003207D01*
X009110Y003281D01*
X009074Y003317D01*
X009184Y003317D02*
X009184Y003281D01*
X009221Y003281D01*
X009221Y003317D01*
X009184Y003317D01*
X009184Y003207D02*
X009184Y003171D01*
X009221Y003171D01*
X009221Y003207D01*
X009184Y003207D01*
X008890Y003171D02*
X008853Y003207D01*
X008853Y003354D01*
X008816Y003317D02*
X008890Y003317D01*
X008742Y003317D02*
X008669Y003317D01*
X008705Y003354D02*
X008705Y003207D01*
X008742Y003171D01*
X008595Y003171D02*
X008595Y003281D01*
X008558Y003317D01*
X008485Y003317D01*
X008448Y003281D01*
X008448Y003391D02*
X008448Y003171D01*
X008387Y003498D02*
X008320Y003498D01*
X008287Y003532D01*
X008287Y003598D01*
X008320Y003632D01*
X008387Y003632D01*
X008420Y003598D01*
X008420Y003532D01*
X008387Y003498D01*
X008523Y003532D02*
X008556Y003498D01*
X008523Y003532D02*
X008523Y003665D01*
X008490Y003632D02*
X008556Y003632D01*
X008218Y003665D02*
X008185Y003698D01*
X008118Y003698D01*
X008084Y003665D01*
X008084Y003532D01*
X008118Y003498D01*
X008185Y003498D01*
X008218Y003532D01*
X008218Y003598D01*
X008151Y003598D01*
X009806Y003598D02*
X009940Y003598D01*
X010009Y003532D02*
X010042Y003565D01*
X010142Y003565D01*
X010142Y003598D02*
X010142Y003498D01*
X010042Y003498D01*
X010009Y003532D01*
X009940Y003498D02*
X009940Y003698D01*
X010042Y003632D02*
X010109Y003632D01*
X010142Y003598D01*
X010211Y003632D02*
X010245Y003632D01*
X010245Y003498D01*
X010278Y003498D02*
X010211Y003498D01*
X010346Y003532D02*
X010346Y003598D01*
X010380Y003632D01*
X010480Y003632D01*
X010480Y003698D02*
X010480Y003498D01*
X010380Y003498D01*
X010346Y003532D01*
X010245Y003698D02*
X010245Y003732D01*
X010262Y003828D02*
X010362Y003828D01*
X010396Y003862D01*
X010396Y003895D01*
X010362Y003928D01*
X010262Y003928D01*
X010193Y003862D02*
X010160Y003828D01*
X010093Y003828D01*
X010060Y003862D01*
X010060Y003995D01*
X010093Y004028D01*
X010160Y004028D01*
X010193Y003995D01*
X010262Y004028D02*
X010362Y004028D01*
X010396Y003995D01*
X010396Y003962D01*
X010362Y003928D01*
X010262Y003828D02*
X010262Y004028D01*
X009990Y003995D02*
X009990Y003928D01*
X009957Y003895D01*
X009857Y003895D01*
X009857Y003828D02*
X009857Y004028D01*
X009957Y004028D01*
X009990Y003995D01*
X009806Y003698D02*
X009806Y003498D01*
X010549Y003532D02*
X010549Y003598D01*
X010582Y003632D01*
X010649Y003632D01*
X010683Y003598D01*
X010683Y003565D01*
X010549Y003565D01*
X010549Y003532D02*
X010582Y003498D01*
X010649Y003498D01*
X010752Y003498D02*
X010752Y003632D01*
X010818Y003632D02*
X010852Y003632D01*
X010818Y003632D02*
X010752Y003565D01*
X011123Y003565D02*
X011190Y003632D01*
X011190Y003665D01*
X011156Y003698D01*
X011123Y003665D01*
X011123Y003632D01*
X011256Y003498D01*
X011190Y003498D02*
X011156Y003498D01*
X011123Y003532D01*
X011123Y003565D01*
X011190Y003498D02*
X011256Y003565D01*
X011308Y004028D02*
X011308Y004062D01*
X012720Y003317D02*
X012794Y003171D01*
X012867Y003317D01*
X012941Y003207D02*
X012978Y003207D01*
X012978Y003171D01*
X012941Y003171D01*
X012941Y003207D01*
X013052Y003171D02*
X013052Y003317D01*
X013162Y003317D01*
X013199Y003281D01*
X013199Y003171D01*
X013273Y003207D02*
X013273Y003281D01*
X013309Y003317D01*
X013383Y003317D01*
X013420Y003281D01*
X013420Y003244D01*
X013273Y003244D01*
X013273Y003207D02*
X013309Y003171D01*
X013383Y003171D01*
X013530Y003207D02*
X013567Y003171D01*
X013530Y003207D02*
X013530Y003354D01*
X013494Y003317D02*
X013567Y003317D01*
X013641Y003171D02*
X013788Y003391D01*
X013789Y003498D02*
X013689Y003498D01*
X013655Y003532D01*
X013655Y003598D01*
X013689Y003632D01*
X013789Y003632D01*
X013858Y003632D02*
X013891Y003632D01*
X013891Y003498D01*
X013858Y003498D02*
X013924Y003498D01*
X013993Y003532D02*
X014026Y003498D01*
X014126Y003498D01*
X014126Y003632D02*
X014026Y003632D01*
X013993Y003598D01*
X013993Y003532D01*
X013891Y003698D02*
X013891Y003732D01*
X013553Y003732D02*
X013553Y003698D01*
X013553Y003632D02*
X013553Y003498D01*
X013520Y003498D02*
X013587Y003498D01*
X013553Y003632D02*
X013520Y003632D01*
X013451Y003632D02*
X013384Y003498D01*
X013318Y003632D01*
X013248Y003598D02*
X013215Y003632D01*
X013148Y003632D01*
X013148Y003565D02*
X013248Y003565D01*
X013248Y003598D02*
X013248Y003498D01*
X013148Y003498D01*
X013115Y003532D01*
X013148Y003565D01*
X013046Y003565D02*
X013046Y003532D01*
X013013Y003498D01*
X012946Y003498D01*
X012912Y003532D01*
X012946Y003598D02*
X013013Y003598D01*
X013046Y003565D01*
X013046Y003665D02*
X013013Y003698D01*
X012946Y003698D01*
X012912Y003665D01*
X012912Y003632D01*
X012946Y003598D01*
X013197Y004654D02*
X013257Y004654D01*
X013287Y004684D01*
X013287Y004744D01*
X013227Y004744D01*
X013287Y004804D02*
X013257Y004834D01*
X013197Y004834D01*
X013167Y004804D01*
X013167Y004684D01*
X013197Y004654D01*
X013351Y004654D02*
X013351Y004834D01*
X013441Y004834D01*
X013471Y004804D01*
X013471Y004774D01*
X013441Y004744D01*
X013351Y004744D01*
X013441Y004744D02*
X013471Y004714D01*
X013471Y004684D01*
X013441Y004654D01*
X013351Y004654D01*
X013535Y004654D02*
X013535Y004774D01*
X013595Y004834D01*
X013655Y004774D01*
X013655Y004654D01*
X013655Y004744D02*
X013535Y004744D01*
X013903Y004714D02*
X013993Y004714D01*
X014023Y004744D01*
X014023Y004804D01*
X013993Y004834D01*
X013903Y004834D01*
X013903Y004654D01*
X014087Y004654D02*
X014087Y004834D01*
X014087Y004744D02*
X014208Y004744D01*
X014208Y004834D02*
X014208Y004654D01*
X014272Y004654D02*
X014332Y004654D01*
X014302Y004654D02*
X014302Y004834D01*
X014272Y004834D02*
X014332Y004834D01*
X014534Y005111D02*
X014534Y005332D01*
X014645Y005332D01*
X014681Y005295D01*
X014681Y005222D01*
X014645Y005185D01*
X014534Y005185D01*
X014460Y005222D02*
X014424Y005185D01*
X014350Y005185D01*
X014313Y005222D01*
X014313Y005258D01*
X014350Y005295D01*
X014424Y005295D01*
X014460Y005258D01*
X014460Y005222D01*
X014424Y005295D02*
X014460Y005332D01*
X014460Y005368D01*
X014424Y005405D01*
X014350Y005405D01*
X014313Y005368D01*
X014313Y005332D01*
X014350Y005295D01*
X014755Y005295D02*
X014829Y005295D01*
X014755Y005405D02*
X014902Y005405D01*
X014755Y005405D02*
X014755Y005185D01*
X012599Y007474D02*
X012562Y007474D01*
X012525Y007511D01*
X012525Y007585D01*
X012562Y007621D01*
X012599Y007621D01*
X012635Y007585D01*
X012635Y007511D01*
X012599Y007474D01*
X012525Y007511D02*
X012489Y007474D01*
X012452Y007474D01*
X012415Y007511D01*
X012415Y007585D01*
X012452Y007621D01*
X012489Y007621D01*
X012525Y007585D01*
X012489Y007695D02*
X012489Y007806D01*
X012525Y007842D01*
X012599Y007842D01*
X012635Y007806D01*
X012635Y007695D01*
X012709Y007695D02*
X012489Y007695D01*
X012525Y007916D02*
X012525Y007990D01*
X012415Y007916D02*
X012415Y008063D01*
X012415Y007916D02*
X012635Y007916D01*
X009425Y009313D02*
X009425Y005813D01*
X003988Y005750D02*
X003988Y009750D01*
X003391Y011815D02*
X003391Y012035D01*
X003281Y011925D01*
X003427Y011925D01*
X003206Y011815D02*
X003060Y011815D01*
X003133Y011815D02*
X003133Y012035D01*
X003060Y011961D01*
X002985Y011998D02*
X002839Y011851D01*
X002875Y011815D01*
X002949Y011815D01*
X002985Y011851D01*
X002985Y011998D01*
X002949Y012035D01*
X002875Y012035D01*
X002839Y011998D01*
X002839Y011851D01*
X002764Y011815D02*
X002618Y011815D01*
X002764Y011961D01*
X002764Y011998D01*
X002728Y012035D01*
X002654Y012035D01*
X002618Y011998D01*
X002543Y012035D02*
X002397Y011815D01*
X002322Y011851D02*
X002286Y011815D01*
X002212Y011815D01*
X002176Y011851D01*
X002176Y011925D02*
X002249Y011961D01*
X002286Y011961D01*
X002322Y011925D01*
X002322Y011851D01*
X002176Y011925D02*
X002176Y012035D01*
X002322Y012035D01*
X002101Y011998D02*
X001955Y011851D01*
X001991Y011815D01*
X002065Y011815D01*
X002101Y011851D01*
X002101Y011998D01*
X002065Y012035D01*
X001991Y012035D01*
X001955Y011998D01*
X001955Y011851D01*
X001659Y011815D02*
X001549Y011815D01*
X001513Y011851D01*
X001549Y011888D01*
X001659Y011888D01*
X001659Y011925D02*
X001659Y011815D01*
X001659Y011925D02*
X001623Y011961D01*
X001549Y011961D01*
X001439Y011851D02*
X001439Y011815D01*
X001402Y011815D01*
X001402Y011851D01*
X001439Y011851D01*
X001328Y011961D02*
X001255Y011815D01*
X001181Y011961D01*
X001107Y011925D02*
X001107Y011888D01*
X000960Y011888D01*
X000960Y011925D02*
X000997Y011961D01*
X001070Y011961D01*
X001107Y011925D01*
X001070Y011815D02*
X000997Y011815D01*
X000960Y011851D01*
X000960Y011925D01*
X000886Y011961D02*
X000849Y011961D01*
X000776Y011888D01*
X000776Y011815D02*
X000776Y011961D01*
X006935Y015036D02*
X006935Y015072D01*
X006972Y015109D01*
X006935Y015146D01*
X006935Y015182D01*
X006972Y015219D01*
X007045Y015219D01*
X007082Y015182D01*
X007156Y015146D02*
X007156Y014999D01*
X007082Y015036D02*
X007045Y014999D01*
X006972Y014999D01*
X006935Y015036D01*
X006972Y015109D02*
X007008Y015109D01*
X007156Y015146D02*
X007229Y015219D01*
X007303Y015146D01*
X007303Y014999D01*
X007377Y015036D02*
X007377Y015072D01*
X007414Y015109D01*
X007377Y015146D01*
X007377Y015182D01*
X007414Y015219D01*
X007487Y015219D01*
X007524Y015182D01*
X007450Y015109D02*
X007414Y015109D01*
X007377Y015036D02*
X007414Y014999D01*
X007487Y014999D01*
X007524Y015036D01*
X007598Y015109D02*
X007745Y015109D01*
X007671Y015036D02*
X007671Y015182D01*
X007913Y015235D02*
X008060Y015235D01*
X007986Y015235D02*
X007986Y015015D01*
X008060Y015088D01*
X008134Y015052D02*
X008170Y015015D01*
X008280Y015015D01*
X008280Y015235D01*
X008170Y015235D01*
X008134Y015198D01*
X008134Y015052D01*
X008355Y015052D02*
X008355Y015125D01*
X008391Y015162D01*
X008501Y015162D01*
X008501Y015235D02*
X008501Y015015D01*
X008391Y015015D01*
X008355Y015052D01*
X008975Y015052D02*
X009122Y015198D01*
X009085Y015235D01*
X009012Y015235D01*
X008975Y015198D01*
X008975Y015052D01*
X009012Y015015D01*
X009085Y015015D01*
X009122Y015052D01*
X009122Y015198D01*
X009196Y015198D02*
X009196Y015052D01*
X009233Y015015D01*
X009343Y015015D01*
X009343Y015235D01*
X009233Y015235D01*
X009196Y015198D01*
X009417Y015125D02*
X009417Y015052D01*
X009454Y015015D01*
X009564Y015015D01*
X009564Y015235D01*
X009564Y015162D02*
X009454Y015162D01*
X009417Y015125D01*
X009975Y015125D02*
X010012Y015088D01*
X010049Y015088D01*
X010122Y015125D01*
X010122Y015015D01*
X009975Y015015D01*
X009975Y015125D02*
X009975Y015198D01*
X010012Y015235D01*
X010085Y015235D01*
X010122Y015198D01*
X010196Y015198D02*
X010233Y015235D01*
X010306Y015235D01*
X010343Y015198D01*
X010343Y015052D01*
X010306Y015015D01*
X010233Y015015D01*
X010196Y015052D01*
X010417Y015052D02*
X010417Y015125D01*
X010454Y015162D01*
X010564Y015162D01*
X010564Y015235D02*
X010564Y015015D01*
X010454Y015015D01*
X010417Y015052D01*
X010975Y015125D02*
X011122Y015125D01*
X011012Y015015D01*
X011012Y015235D01*
X011196Y015198D02*
X011233Y015235D01*
X011306Y015235D01*
X011343Y015198D01*
X011343Y015052D01*
X011306Y015015D01*
X011233Y015015D01*
X011196Y015052D01*
X011417Y015052D02*
X011417Y015125D01*
X011454Y015162D01*
X011564Y015162D01*
X011564Y015235D02*
X011564Y015015D01*
X011454Y015015D01*
X011417Y015052D01*
X011975Y015235D02*
X012122Y015235D01*
X012049Y015235D02*
X012049Y015015D01*
X012122Y015088D01*
X012196Y015088D02*
X012233Y015125D01*
X012343Y015125D01*
X012417Y015125D02*
X012454Y015162D01*
X012564Y015162D01*
X012564Y015235D02*
X012564Y015015D01*
X012454Y015015D01*
X012417Y015052D01*
X012417Y015125D01*
X012343Y015235D02*
X012233Y015235D01*
X012196Y015198D01*
X012196Y015162D01*
X012233Y015125D01*
X012196Y015088D02*
X012196Y015052D01*
X012233Y015015D01*
X012343Y015015D01*
X012343Y015235D01*
X012975Y015235D02*
X013122Y015235D01*
X012975Y015088D01*
X012975Y015052D01*
X013012Y015015D01*
X013085Y015015D01*
X013122Y015052D01*
X013196Y015052D02*
X013196Y015088D01*
X013233Y015125D01*
X013343Y015125D01*
X013417Y015125D02*
X013454Y015162D01*
X013564Y015162D01*
X013564Y015235D02*
X013564Y015015D01*
X013454Y015015D01*
X013417Y015052D01*
X013417Y015125D01*
X013343Y015235D02*
X013233Y015235D01*
X013196Y015198D01*
X013196Y015162D01*
X013233Y015125D01*
X013196Y015052D02*
X013233Y015015D01*
X013343Y015015D01*
X013343Y015235D01*
X013920Y015182D02*
X013920Y015036D01*
X013957Y014999D01*
X014067Y014999D01*
X014067Y015219D01*
X013957Y015219D01*
X013920Y015182D01*
X014141Y015219D02*
X014141Y014999D01*
X014288Y014999D02*
X014141Y015219D01*
X014288Y015219D02*
X014288Y014999D01*
X014362Y015036D02*
X014399Y014999D01*
X014473Y014999D01*
X014509Y015036D01*
X014509Y015182D01*
X014473Y015219D01*
X014399Y015219D01*
X014362Y015182D01*
X014362Y015109D01*
X014436Y015109D01*
X009519Y013315D02*
X009519Y013094D01*
X009409Y013094D01*
X009372Y013131D01*
X009372Y013204D01*
X009409Y013241D01*
X009519Y013241D01*
X009446Y013241D02*
X009372Y013315D01*
X009298Y013315D02*
X009151Y013094D01*
X009298Y013094D02*
X009151Y013315D01*
X008703Y013077D02*
X008557Y013077D01*
X008630Y013077D02*
X008630Y013298D01*
X008483Y013298D02*
X008336Y013077D01*
X008483Y013077D02*
X008336Y013298D01*
X018476Y005358D02*
X018549Y005431D01*
X018549Y005211D01*
X018476Y005211D02*
X018622Y005211D01*
X018697Y005248D02*
X018843Y005395D01*
X018843Y005248D01*
X018807Y005211D01*
X018733Y005211D01*
X018697Y005248D01*
X018697Y005395D01*
X018733Y005431D01*
X018807Y005431D01*
X018843Y005395D01*
X018918Y005358D02*
X018918Y005248D01*
X018954Y005211D01*
X019064Y005211D01*
X019064Y005358D01*
X019139Y005321D02*
X019212Y005321D01*
X019139Y005211D02*
X019139Y005431D01*
X019285Y005431D01*
X019253Y009010D02*
X019399Y009157D01*
X019399Y009193D01*
X019363Y009230D01*
X019289Y009230D01*
X019253Y009193D01*
X019253Y009010D02*
X019399Y009010D01*
X019473Y009010D02*
X019620Y009157D01*
X019620Y009193D01*
X019584Y009230D01*
X019510Y009230D01*
X019473Y009193D01*
X019473Y009010D02*
X019620Y009010D01*
X019694Y009047D02*
X019731Y009010D01*
X019805Y009010D01*
X019841Y009047D01*
X019841Y009193D01*
X019694Y009047D01*
X019694Y009193D01*
X019731Y009230D01*
X019805Y009230D01*
X019841Y009193D01*
X019915Y009230D02*
X019915Y009010D01*
X019915Y009083D02*
X020026Y009083D01*
X020062Y009120D01*
X020062Y009193D01*
X020026Y009230D01*
X019915Y009230D01*
X019989Y009083D02*
X020062Y009010D01*
X019929Y010022D02*
X019783Y010022D01*
X019856Y010022D02*
X019856Y010242D01*
X019783Y010169D01*
X019708Y010205D02*
X019672Y010242D01*
X019562Y010242D01*
X019562Y010022D01*
X019672Y010022D01*
X019708Y010059D01*
X019708Y010205D01*
X019487Y010242D02*
X019341Y010242D01*
X019341Y010022D01*
X019487Y010022D01*
X019414Y010132D02*
X019341Y010132D01*
X019266Y010022D02*
X019120Y010022D01*
X019120Y010242D01*
D12*
X014298Y005955D02*
X013798Y005955D01*
X013798Y005652D01*
X013798Y005258D02*
X013798Y004955D01*
X014298Y004955D01*
X014298Y005258D01*
X014298Y005652D02*
X014298Y005955D01*
D13*
X019334Y010785D03*
X017847Y010887D03*
D14*
X018531Y011236D03*
X019330Y010802D03*
X019330Y010794D03*
X019610Y011159D03*
X019814Y010853D03*
X019984Y010828D03*
X017995Y012001D03*
D15*
X017919Y011661D03*
X018378Y011159D03*
X018522Y011261D03*
X018004Y010972D03*
X019253Y010913D03*
X019330Y010811D03*
X019457Y010879D03*
X019474Y011040D03*
X019823Y011015D03*
X019823Y011006D03*
X019823Y010998D03*
X019823Y010989D03*
X019823Y010981D03*
X019823Y010972D03*
X019823Y010964D03*
X019823Y010955D03*
X019976Y010904D03*
X019976Y010896D03*
X019976Y010887D03*
X019976Y010836D03*
X019661Y012094D03*
X019389Y012094D03*
D16*
X019666Y012086D03*
X019810Y011049D03*
X019827Y010947D03*
X019827Y010938D03*
X019827Y010930D03*
X019827Y010921D03*
X019827Y010913D03*
X019827Y010904D03*
X019827Y010896D03*
X019827Y010887D03*
X019827Y010879D03*
X019827Y010870D03*
X019972Y010870D03*
X019972Y010862D03*
X019972Y010879D03*
X019980Y010913D03*
X019470Y011006D03*
X019470Y011015D03*
X019470Y011023D03*
X019470Y011032D03*
X019479Y011049D03*
X019462Y010972D03*
X019453Y010887D03*
X019326Y010819D03*
X019266Y010896D03*
X019258Y010904D03*
X019249Y010921D03*
X019249Y010930D03*
X019249Y010938D03*
X017685Y012069D03*
D17*
X018535Y011227D03*
X018535Y011219D03*
X019989Y010819D03*
D18*
X019967Y010845D03*
X019967Y010853D03*
X019457Y010930D03*
X019457Y010938D03*
X019457Y010947D03*
X019457Y010955D03*
X019457Y010964D03*
X019449Y010904D03*
X019449Y010896D03*
X019321Y010828D03*
X019245Y010947D03*
X019245Y010955D03*
X018522Y011270D03*
X018522Y011278D03*
D19*
X018395Y011168D03*
X019236Y010972D03*
X019296Y010870D03*
X019321Y010836D03*
X019619Y011151D03*
X019797Y011057D03*
X019695Y012060D03*
D20*
X019700Y012052D03*
X020006Y010930D03*
X019317Y010845D03*
X019232Y010981D03*
X017898Y011686D03*
X017898Y011695D03*
X017702Y012052D03*
D21*
X017893Y011703D03*
X018106Y011950D03*
X017502Y011261D03*
X017502Y011253D03*
X019228Y010989D03*
X019304Y010862D03*
X019313Y010853D03*
X020273Y011321D03*
X019398Y012077D03*
D22*
X018527Y011253D03*
X018527Y011244D03*
X018119Y011967D03*
X019819Y011040D03*
X019819Y011032D03*
X019819Y011023D03*
X019819Y010862D03*
D23*
X019453Y010913D03*
X019453Y010921D03*
X019487Y011057D03*
X019241Y010964D03*
X019275Y010887D03*
X019283Y010879D03*
X020286Y011312D03*
X019394Y012086D03*
X018110Y011958D03*
X017906Y011678D03*
X017694Y012060D03*
X018000Y010964D03*
D24*
X017893Y010896D03*
X017494Y011295D03*
X017494Y011304D03*
X017494Y011312D03*
X017494Y011321D03*
X017885Y011720D03*
X019219Y011015D03*
X019627Y011142D03*
X019721Y012026D03*
D25*
X020057Y011057D03*
X020057Y011049D03*
X020057Y011040D03*
X020048Y011023D03*
X020048Y011015D03*
X019207Y011040D03*
X018416Y011185D03*
X018416Y011193D03*
X018416Y011202D03*
X018416Y011210D03*
X018416Y011219D03*
X018416Y011227D03*
X018000Y010947D03*
X017923Y010904D03*
X017481Y011389D03*
X017481Y011397D03*
X017481Y011406D03*
X017481Y011414D03*
X017481Y011542D03*
X017481Y011550D03*
X017481Y011559D03*
X017481Y011567D03*
X017490Y011593D03*
X017498Y011601D03*
X017872Y011746D03*
X017949Y011975D03*
D26*
X017732Y012018D03*
X017477Y011533D03*
X017477Y011525D03*
X017477Y011516D03*
X017477Y011440D03*
X017477Y011431D03*
X017477Y011423D03*
X017944Y010913D03*
X018412Y011236D03*
X018412Y011244D03*
X018412Y011253D03*
X018412Y011261D03*
X018412Y011270D03*
X018412Y011278D03*
X019551Y011083D03*
X019763Y011083D03*
X020061Y011074D03*
X020061Y011066D03*
X020069Y011100D03*
D27*
X019202Y011049D03*
X017961Y010921D03*
X017502Y011610D03*
D28*
X017910Y011669D03*
X017978Y011992D03*
X019466Y010998D03*
X019466Y010989D03*
X019466Y010981D03*
X019993Y010921D03*
X019678Y012077D03*
D29*
X020074Y011125D03*
X020074Y011117D03*
X020074Y011108D03*
X020065Y011091D03*
X020065Y011083D03*
X019198Y011057D03*
X018000Y010938D03*
X017983Y010930D03*
X017473Y011448D03*
X017473Y011457D03*
X017473Y011465D03*
X017473Y011474D03*
X017473Y011482D03*
X017473Y011491D03*
X017473Y011499D03*
X017473Y011508D03*
X017507Y011618D03*
X017515Y011627D03*
X017736Y012009D03*
D30*
X017711Y012043D03*
X017966Y011984D03*
X017889Y011712D03*
X017498Y011287D03*
X017498Y011278D03*
X017498Y011270D03*
X018000Y010955D03*
X019708Y012043D03*
X019717Y012035D03*
X019785Y011066D03*
X020014Y010938D03*
D31*
X020031Y010947D03*
X020031Y010955D03*
X019776Y011074D03*
X019530Y011074D03*
X019215Y011023D03*
X019572Y011593D03*
X019725Y012018D03*
X017719Y012035D03*
X017490Y011346D03*
X017490Y011338D03*
X017490Y011329D03*
D32*
X017485Y011355D03*
X017485Y011363D03*
X017485Y011372D03*
X017485Y011380D03*
X017485Y011576D03*
X017485Y011584D03*
X017876Y011737D03*
X017723Y012026D03*
X019211Y011032D03*
X020035Y010981D03*
X020035Y010972D03*
X020035Y010964D03*
X020044Y010989D03*
X020044Y010998D03*
X020044Y011006D03*
X020052Y011032D03*
X019738Y012009D03*
X019406Y012069D03*
D33*
X020316Y011295D03*
X018539Y011210D03*
X018361Y011151D03*
X018004Y010981D03*
D34*
X018408Y011176D03*
X019224Y011006D03*
X019224Y010998D03*
X019513Y011066D03*
D35*
X019576Y011091D03*
X019636Y011134D03*
X020078Y011134D03*
X019194Y011066D03*
X019406Y012060D03*
D36*
X019194Y011074D03*
X017536Y011661D03*
X017528Y011652D03*
D37*
X017541Y011669D03*
X017541Y011678D03*
X017549Y011686D03*
X017753Y011992D03*
X019190Y011091D03*
X019190Y011083D03*
X020091Y011321D03*
X019411Y012052D03*
D38*
X019751Y011091D03*
X017881Y011754D03*
X017745Y012001D03*
X017524Y011644D03*
D39*
X017553Y011695D03*
X017757Y011984D03*
X019185Y011100D03*
X019644Y011125D03*
X020095Y011287D03*
X020095Y011295D03*
X020095Y011304D03*
X020095Y011312D03*
X020086Y011329D03*
D40*
X019666Y011100D03*
X019674Y011601D03*
X019436Y012018D03*
D41*
X020099Y011278D03*
X020099Y011270D03*
X020099Y011261D03*
X020099Y011253D03*
X020099Y011244D03*
X019181Y011108D03*
X017566Y011712D03*
X017558Y011703D03*
D42*
X018221Y011780D03*
X019666Y011108D03*
D43*
X020103Y011202D03*
X020103Y011210D03*
X020103Y011219D03*
X020103Y011227D03*
X020103Y011236D03*
X019177Y011117D03*
X017766Y011975D03*
X017570Y011720D03*
D44*
X018267Y011754D03*
X018293Y011729D03*
X018437Y011406D03*
X018437Y011397D03*
X018437Y011389D03*
X018437Y011380D03*
X019160Y011151D03*
X019653Y011117D03*
D45*
X020108Y011168D03*
X020108Y011176D03*
X020108Y011185D03*
X020108Y011193D03*
X019173Y011125D03*
X018442Y011287D03*
X018442Y011295D03*
X018442Y011304D03*
X018442Y011312D03*
X018442Y011321D03*
X018442Y011329D03*
X017575Y011729D03*
X019419Y012043D03*
D46*
X019168Y011134D03*
X020112Y011142D03*
X020112Y011151D03*
X020112Y011159D03*
D47*
X019164Y011142D03*
X018442Y011355D03*
X018442Y011363D03*
X018442Y011372D03*
X018280Y011746D03*
X017592Y011754D03*
D48*
X018297Y011720D03*
X018382Y011618D03*
X018391Y011610D03*
X018391Y011601D03*
X018399Y011576D03*
X018433Y011431D03*
X018433Y011423D03*
X018433Y011414D03*
X019156Y011168D03*
X019156Y011159D03*
X019428Y012035D03*
D49*
X019151Y011176D03*
X018437Y011440D03*
X018437Y011448D03*
X018420Y011516D03*
X018412Y011542D03*
X018412Y011550D03*
X018403Y011559D03*
X018403Y011567D03*
X018395Y011584D03*
X018395Y011593D03*
X018310Y011703D03*
X018301Y011712D03*
X018250Y011763D03*
D50*
X018314Y011695D03*
X018425Y011508D03*
X018425Y011499D03*
X018433Y011482D03*
X018433Y011474D03*
X018433Y011465D03*
X018433Y011457D03*
X019147Y011185D03*
D51*
X019143Y011193D03*
X018429Y011491D03*
X018327Y011678D03*
X018318Y011686D03*
D52*
X018331Y011669D03*
X018365Y011627D03*
X019139Y011321D03*
X019139Y011312D03*
X019139Y011202D03*
D53*
X019134Y011210D03*
X019134Y011287D03*
X019134Y011295D03*
X019134Y011304D03*
X018361Y011635D03*
X018352Y011644D03*
X018344Y011652D03*
X018335Y011661D03*
X019432Y012026D03*
D54*
X019130Y011278D03*
X019130Y011270D03*
X019130Y011261D03*
X019130Y011219D03*
D55*
X019126Y011227D03*
X019126Y011236D03*
X019126Y011244D03*
X019126Y011253D03*
D56*
X020303Y011304D03*
D57*
X020146Y011363D03*
X020146Y011372D03*
X019126Y011465D03*
X019126Y011474D03*
X019109Y011372D03*
X019109Y011363D03*
X019109Y011355D03*
X019109Y011346D03*
X019109Y011338D03*
X019109Y011329D03*
D58*
X017881Y011729D03*
X020261Y011329D03*
D59*
X018437Y011338D03*
X018437Y011346D03*
X017587Y011746D03*
X017579Y011737D03*
D60*
X020154Y011338D03*
D61*
X020150Y011346D03*
X020150Y011355D03*
X019122Y011457D03*
X019113Y011440D03*
X019113Y011431D03*
X019113Y011423D03*
X019113Y011414D03*
X019113Y011406D03*
X019113Y011397D03*
X019113Y011389D03*
X019113Y011380D03*
D62*
X019445Y012009D03*
X020142Y011389D03*
X020142Y011380D03*
D63*
X020137Y011397D03*
X020137Y011406D03*
X019134Y011491D03*
X019134Y011499D03*
X017842Y011967D03*
D64*
X020133Y011423D03*
X020133Y011414D03*
D65*
X020129Y011431D03*
X020129Y011440D03*
X019151Y011533D03*
X019151Y011542D03*
X019143Y011516D03*
D66*
X019117Y011448D03*
D67*
X019156Y011550D03*
X020125Y011457D03*
X020125Y011448D03*
D68*
X020120Y011465D03*
X020120Y011474D03*
X020112Y011491D03*
X019219Y011661D03*
X019177Y011593D03*
D69*
X019130Y011482D03*
D70*
X019164Y011576D03*
X019173Y011584D03*
X019181Y011601D03*
X019190Y011610D03*
X019190Y011618D03*
X019198Y011627D03*
X019207Y011635D03*
X019207Y011644D03*
X019215Y011652D03*
X019224Y011669D03*
X019232Y011678D03*
X020065Y011593D03*
X020074Y011576D03*
X020082Y011559D03*
X020091Y011542D03*
X020091Y011533D03*
X020099Y011525D03*
X020099Y011516D03*
X020108Y011508D03*
X020108Y011499D03*
X020116Y011482D03*
X017830Y011958D03*
D71*
X019139Y011508D03*
X019147Y011525D03*
D72*
X018416Y011525D03*
X018416Y011533D03*
X018238Y011771D03*
D73*
X020061Y011601D03*
X020078Y011567D03*
X020086Y011550D03*
D74*
X019160Y011559D03*
X019160Y011567D03*
D75*
X020069Y011584D03*
D76*
X019895Y011610D03*
D77*
X019891Y011618D03*
X019891Y011627D03*
X019593Y011967D03*
D78*
X017519Y011635D03*
D79*
X017876Y011899D03*
X019891Y011644D03*
X019891Y011635D03*
D80*
X019895Y011652D03*
X017872Y011907D03*
D81*
X019891Y011669D03*
X019891Y011661D03*
D82*
X019891Y011678D03*
D83*
X019636Y011686D03*
X019636Y011695D03*
D84*
X019636Y011703D03*
D85*
X019640Y011712D03*
D86*
X019636Y011720D03*
D87*
X019640Y011729D03*
D88*
X018284Y011737D03*
D89*
X019640Y011737D03*
X019640Y011746D03*
D90*
X019644Y011754D03*
D91*
X017736Y011763D03*
D92*
X019644Y011763D03*
X019644Y011771D03*
D93*
X017753Y011771D03*
D94*
X017770Y011780D03*
D95*
X019644Y011780D03*
D96*
X017919Y011788D03*
D97*
X019649Y011788D03*
X019649Y011797D03*
D98*
X017919Y011797D03*
D99*
X017915Y011805D03*
X019606Y011907D03*
D100*
X019649Y011805D03*
D101*
X017910Y011814D03*
D102*
X019636Y011814D03*
D103*
X019598Y011916D03*
X017906Y011822D03*
D104*
X019627Y011822D03*
D105*
X019598Y011924D03*
X017906Y011831D03*
D106*
X019623Y011831D03*
D107*
X017902Y011839D03*
D108*
X019623Y011839D03*
D109*
X019598Y011933D03*
X017898Y011848D03*
D110*
X019619Y011848D03*
D111*
X017898Y011856D03*
D112*
X019615Y011856D03*
D113*
X019593Y011950D03*
X017893Y011865D03*
D114*
X019610Y011865D03*
D115*
X017889Y011873D03*
D116*
X019610Y011873D03*
D117*
X017885Y011882D03*
D118*
X019610Y011882D03*
D119*
X017881Y011890D03*
D120*
X019606Y011890D03*
D121*
X019606Y011899D03*
D122*
X017872Y011916D03*
D123*
X017864Y011924D03*
D124*
X017855Y011933D03*
D125*
X017847Y011941D03*
D126*
X019593Y011941D03*
D127*
X017800Y011950D03*
D128*
X019593Y011958D03*
D129*
X019538Y011975D03*
D130*
X019538Y011984D03*
D131*
X019534Y011992D03*
D132*
X019534Y012001D03*
D133*
X019687Y012069D03*
D134*
X017685Y008817D02*
X015065Y008817D01*
X014925Y008678D01*
X014925Y006058D01*
X017685Y006058D01*
X017685Y008817D01*
X015084Y008518D02*
X015086Y008541D01*
X015092Y008564D01*
X015101Y008585D01*
X015114Y008605D01*
X015130Y008622D01*
X015148Y008636D01*
X015168Y008647D01*
X015190Y008655D01*
X015213Y008659D01*
X015237Y008659D01*
X015260Y008655D01*
X015282Y008647D01*
X015302Y008636D01*
X015320Y008622D01*
X015336Y008605D01*
X015349Y008585D01*
X015358Y008564D01*
X015364Y008541D01*
X015366Y008518D01*
X015364Y008495D01*
X015358Y008472D01*
X015349Y008451D01*
X015336Y008431D01*
X015320Y008414D01*
X015302Y008400D01*
X015282Y008389D01*
X015260Y008381D01*
X015237Y008377D01*
X015213Y008377D01*
X015190Y008381D01*
X015168Y008389D01*
X015148Y008400D01*
X015130Y008414D01*
X015114Y008431D01*
X015101Y008451D01*
X015092Y008472D01*
X015086Y008495D01*
X015084Y008518D01*
X010825Y009163D02*
X010823Y009186D01*
X010818Y009209D01*
X010809Y009231D01*
X010796Y009251D01*
X010781Y009269D01*
X010763Y009284D01*
X010743Y009297D01*
X010721Y009306D01*
X010698Y009311D01*
X010675Y009313D01*
X010255Y009313D01*
X009855Y009313D01*
X009435Y009313D01*
X009412Y009311D01*
X009389Y009306D01*
X009367Y009297D01*
X009347Y009284D01*
X009329Y009269D01*
X009314Y009251D01*
X009301Y009231D01*
X009292Y009209D01*
X009287Y009186D01*
X009285Y009163D01*
X009855Y009313D02*
X009857Y009286D01*
X009862Y009259D01*
X009872Y009233D01*
X009884Y009209D01*
X009900Y009187D01*
X009918Y009167D01*
X009940Y009150D01*
X009963Y009135D01*
X009988Y009125D01*
X010014Y009117D01*
X010041Y009113D01*
X010069Y009113D01*
X010096Y009117D01*
X010122Y009125D01*
X010147Y009135D01*
X010170Y009150D01*
X010192Y009167D01*
X010210Y009187D01*
X010226Y009209D01*
X010238Y009233D01*
X010248Y009259D01*
X010253Y009286D01*
X010255Y009313D01*
X010825Y005963D02*
X010823Y005940D01*
X010818Y005917D01*
X010809Y005895D01*
X010796Y005875D01*
X010781Y005857D01*
X010763Y005842D01*
X010743Y005829D01*
X010721Y005820D01*
X010698Y005815D01*
X010675Y005813D01*
X009435Y005813D01*
X009412Y005815D01*
X009389Y005820D01*
X009367Y005829D01*
X009347Y005842D01*
X009329Y005857D01*
X009314Y005875D01*
X009301Y005895D01*
X009292Y005917D01*
X009287Y005940D01*
X009285Y005963D01*
X005388Y005900D02*
X005388Y009600D01*
X005386Y009623D01*
X005381Y009646D01*
X005372Y009668D01*
X005359Y009688D01*
X005344Y009706D01*
X005326Y009721D01*
X005306Y009734D01*
X005284Y009743D01*
X005261Y009748D01*
X005238Y009750D01*
X004818Y009750D01*
X004418Y009750D01*
X003998Y009750D01*
X003975Y009748D01*
X003952Y009743D01*
X003930Y009734D01*
X003910Y009721D01*
X003892Y009706D01*
X003877Y009688D01*
X003864Y009668D01*
X003855Y009646D01*
X003850Y009623D01*
X003848Y009600D01*
X003848Y005900D01*
X003850Y005877D01*
X003855Y005854D01*
X003864Y005832D01*
X003877Y005812D01*
X003892Y005794D01*
X003910Y005779D01*
X003930Y005766D01*
X003952Y005757D01*
X003975Y005752D01*
X003998Y005750D01*
X005238Y005750D01*
X005261Y005752D01*
X005284Y005757D01*
X005306Y005766D01*
X005326Y005779D01*
X005344Y005794D01*
X005359Y005812D01*
X005372Y005832D01*
X005381Y005854D01*
X005386Y005877D01*
X005388Y005900D01*
X004818Y009750D02*
X004816Y009723D01*
X004811Y009696D01*
X004801Y009670D01*
X004789Y009646D01*
X004773Y009624D01*
X004755Y009604D01*
X004733Y009587D01*
X004710Y009572D01*
X004685Y009562D01*
X004659Y009554D01*
X004632Y009550D01*
X004604Y009550D01*
X004577Y009554D01*
X004551Y009562D01*
X004526Y009572D01*
X004503Y009587D01*
X004481Y009604D01*
X004463Y009624D01*
X004447Y009646D01*
X004435Y009670D01*
X004425Y009696D01*
X004420Y009723D01*
X004418Y009750D01*
D135*
X004378Y009863D02*
X004281Y009863D01*
X004233Y009912D01*
X004233Y010105D01*
X004281Y010154D01*
X004378Y010154D01*
X004427Y010105D01*
X004528Y010057D02*
X004624Y010154D01*
X004624Y009863D01*
X004528Y009863D02*
X004721Y009863D01*
X004427Y009912D02*
X004378Y009863D01*
X004133Y009863D02*
X004037Y009863D01*
X004085Y009863D02*
X004085Y010154D01*
X004037Y010154D02*
X004133Y010154D01*
X002386Y010539D02*
X002193Y010539D01*
X002290Y010539D02*
X002290Y010829D01*
X002193Y010733D01*
X002092Y010829D02*
X001898Y010829D01*
X001898Y010539D01*
X001898Y010684D02*
X001995Y010684D01*
X004472Y008327D02*
X004472Y008182D01*
X004763Y008182D01*
X004763Y008327D01*
X004714Y008375D01*
X004521Y008375D01*
X004472Y008327D01*
X004472Y008081D02*
X004472Y007887D01*
X004617Y007887D01*
X004569Y007984D01*
X004569Y008032D01*
X004617Y008081D01*
X004714Y008081D01*
X004763Y008032D01*
X004763Y007936D01*
X004714Y007887D01*
X004521Y007786D02*
X004472Y007786D01*
X004472Y007593D01*
X004472Y007395D02*
X004763Y007395D01*
X004763Y007298D02*
X004763Y007492D01*
X004763Y007593D02*
X004714Y007593D01*
X004521Y007786D01*
X004472Y007395D02*
X004569Y007298D01*
X004617Y007197D02*
X004617Y007003D01*
X004472Y007148D01*
X004763Y007148D01*
X009383Y009415D02*
X009479Y009415D01*
X009431Y009415D02*
X009431Y009705D01*
X009383Y009705D02*
X009479Y009705D01*
X009579Y009657D02*
X009627Y009705D01*
X009724Y009705D01*
X009772Y009657D01*
X009874Y009657D02*
X009922Y009705D01*
X010019Y009705D01*
X010067Y009657D01*
X010067Y009608D01*
X009874Y009415D01*
X010067Y009415D01*
X009772Y009463D02*
X009724Y009415D01*
X009627Y009415D01*
X009579Y009463D01*
X009579Y009657D01*
X009958Y008642D02*
X009910Y008594D01*
X009910Y008449D01*
X010200Y008449D01*
X010200Y008594D01*
X010152Y008642D01*
X009958Y008642D01*
X009910Y008348D02*
X009910Y008154D01*
X010055Y008154D01*
X010007Y008251D01*
X010007Y008299D01*
X010055Y008348D01*
X010152Y008348D01*
X010200Y008299D01*
X010200Y008203D01*
X010152Y008154D01*
X010200Y008053D02*
X010200Y007860D01*
X010007Y008053D01*
X009958Y008053D01*
X009910Y008005D01*
X009910Y007908D01*
X009958Y007860D01*
X009910Y007662D02*
X010200Y007662D01*
X010200Y007758D02*
X010200Y007565D01*
X010152Y007464D02*
X010200Y007415D01*
X010200Y007319D01*
X010152Y007270D01*
X009958Y007270D01*
X009910Y007319D01*
X009910Y007415D01*
X009958Y007464D01*
X010007Y007565D02*
X009910Y007662D01*
X009910Y007169D02*
X010200Y007169D01*
X010055Y007169D02*
X010055Y006976D01*
X010055Y006875D02*
X010055Y006681D01*
X009910Y006826D01*
X010200Y006826D01*
X010200Y006976D02*
X009910Y006976D01*
X009910Y006580D02*
X009958Y006580D01*
X010152Y006386D01*
X010200Y006386D01*
X009910Y006386D02*
X009910Y006580D01*
X012927Y006498D02*
X013024Y006401D01*
X012927Y006498D02*
X013217Y006498D01*
X013217Y006594D02*
X013217Y006401D01*
X013217Y006300D02*
X012927Y006106D01*
X012927Y006300D02*
X013217Y006106D01*
X016160Y006321D02*
X016257Y006417D01*
X016160Y006514D01*
X016450Y006514D01*
X016450Y006615D02*
X016160Y006615D01*
X016160Y006809D01*
X016208Y006910D02*
X016402Y006910D01*
X016450Y006958D01*
X016450Y007055D01*
X016402Y007103D01*
X016305Y007103D01*
X016305Y007007D01*
X016208Y007103D02*
X016160Y007055D01*
X016160Y006958D01*
X016208Y006910D01*
X016450Y006809D02*
X016450Y006615D01*
X016305Y006615D02*
X016305Y006712D01*
X016450Y006321D02*
X016160Y006321D01*
X016257Y007204D02*
X016160Y007301D01*
X016257Y007398D01*
X016450Y007398D01*
X016402Y007499D02*
X016353Y007499D01*
X016305Y007547D01*
X016305Y007644D01*
X016353Y007693D01*
X016402Y007693D01*
X016450Y007644D01*
X016450Y007547D01*
X016402Y007499D01*
X016305Y007547D02*
X016257Y007499D01*
X016208Y007499D01*
X016160Y007547D01*
X016160Y007644D01*
X016208Y007693D01*
X016257Y007693D01*
X016305Y007644D01*
X016305Y007794D02*
X016305Y007987D01*
X016305Y008088D02*
X016305Y008282D01*
X016257Y008282D02*
X016450Y008282D01*
X016450Y008383D02*
X016450Y008480D01*
X016450Y008431D02*
X016160Y008431D01*
X016160Y008383D02*
X016160Y008480D01*
X016257Y008282D02*
X016160Y008185D01*
X016257Y008088D01*
X016450Y008088D01*
X016305Y007398D02*
X016305Y007204D01*
X016257Y007204D02*
X016450Y007204D01*
X014852Y008688D02*
X014804Y008640D01*
X014707Y008640D01*
X014659Y008688D01*
X014557Y008688D02*
X014509Y008640D01*
X014412Y008640D01*
X014364Y008688D01*
X014364Y008882D01*
X014412Y008930D01*
X014509Y008930D01*
X014557Y008882D01*
X014659Y008882D02*
X014707Y008930D01*
X014804Y008930D01*
X014852Y008882D01*
X014852Y008833D01*
X014804Y008785D01*
X014852Y008737D01*
X014852Y008688D01*
X014804Y008785D02*
X014755Y008785D01*
X014264Y008640D02*
X014168Y008640D01*
X014216Y008640D02*
X014216Y008930D01*
X014168Y008930D02*
X014264Y008930D01*
D136*
X013190Y007370D02*
X012954Y007370D01*
X012442Y006622D02*
X012442Y006150D01*
X012954Y005402D02*
X013190Y005402D01*
X013702Y006150D02*
X013702Y006622D01*
X019488Y010256D02*
X019488Y010438D01*
X019610Y010560D01*
X019610Y010312D01*
X019484Y010438D01*
X019488Y010438D02*
X019488Y010619D01*
X014731Y013859D02*
X014731Y014359D01*
X006731Y014359D02*
X006731Y013859D01*
D137*
X001051Y000509D02*
X020298Y000509D01*
X020298Y004008D01*
X020622Y004008D01*
X020622Y005767D01*
X020831Y005767D01*
X020831Y006530D01*
X020622Y006530D01*
X020622Y007850D01*
X019801Y007850D01*
X019801Y008614D01*
X020622Y008614D01*
X020622Y010929D01*
X020622Y012364D01*
X014739Y012364D01*
X014739Y014484D01*
X014739Y015484D01*
X013739Y015484D01*
X012739Y015484D01*
X011739Y015484D01*
X010739Y015484D01*
X009739Y015484D01*
X008739Y015484D01*
X007739Y015484D01*
X006739Y015484D01*
X006739Y014484D01*
X006739Y012364D01*
X000727Y012364D01*
X000727Y007850D01*
X001548Y007850D01*
X001548Y007040D01*
X000727Y007040D01*
X000727Y006530D01*
X000519Y006530D01*
X000519Y005767D01*
X000727Y005767D01*
X000727Y004008D01*
X001051Y004008D01*
X001051Y000509D01*
X010343Y012366D02*
X010345Y012405D01*
X010351Y012444D01*
X010361Y012482D01*
X010374Y012519D01*
X010391Y012554D01*
X010411Y012588D01*
X010435Y012619D01*
X010462Y012648D01*
X010491Y012674D01*
X010523Y012697D01*
X010557Y012717D01*
X010593Y012733D01*
X010630Y012745D01*
X010669Y012754D01*
X010708Y012759D01*
X010747Y012760D01*
X010786Y012757D01*
X010825Y012750D01*
X010862Y012739D01*
X010899Y012725D01*
X010934Y012707D01*
X010967Y012686D01*
X010998Y012661D01*
X011026Y012634D01*
X011051Y012604D01*
X011073Y012571D01*
X011092Y012537D01*
X011107Y012501D01*
X011119Y012463D01*
X011127Y012425D01*
X011131Y012386D01*
X011131Y012346D01*
X011127Y012307D01*
X011119Y012269D01*
X011107Y012231D01*
X011092Y012195D01*
X011073Y012161D01*
X011051Y012128D01*
X011026Y012098D01*
X010998Y012071D01*
X010967Y012046D01*
X010934Y012025D01*
X010899Y012007D01*
X010862Y011993D01*
X010825Y011982D01*
X010786Y011975D01*
X010747Y011972D01*
X010708Y011973D01*
X010669Y011978D01*
X010630Y011987D01*
X010593Y011999D01*
X010557Y012015D01*
X010523Y012035D01*
X010491Y012058D01*
X010462Y012084D01*
X010435Y012113D01*
X010411Y012144D01*
X010391Y012178D01*
X010374Y012213D01*
X010361Y012250D01*
X010351Y012288D01*
X010345Y012327D01*
X010343Y012366D01*
X020622Y010929D02*
X020622Y010929D01*
X019186Y004529D02*
X019188Y004571D01*
X019194Y004613D01*
X019204Y004655D01*
X019217Y004695D01*
X019235Y004734D01*
X019256Y004771D01*
X019280Y004805D01*
X019308Y004838D01*
X019338Y004868D01*
X019371Y004894D01*
X019406Y004918D01*
X019444Y004938D01*
X019483Y004954D01*
X019523Y004967D01*
X019565Y004976D01*
X019607Y004981D01*
X019650Y004982D01*
X019692Y004979D01*
X019734Y004972D01*
X019775Y004961D01*
X019815Y004946D01*
X019853Y004928D01*
X019890Y004906D01*
X019924Y004881D01*
X019956Y004853D01*
X019984Y004822D01*
X020010Y004788D01*
X020033Y004752D01*
X020052Y004715D01*
X020068Y004675D01*
X020080Y004634D01*
X020088Y004593D01*
X020092Y004550D01*
X020092Y004508D01*
X020088Y004465D01*
X020080Y004424D01*
X020068Y004383D01*
X020052Y004343D01*
X020033Y004306D01*
X020010Y004270D01*
X019984Y004236D01*
X019956Y004205D01*
X019924Y004177D01*
X019890Y004152D01*
X019853Y004130D01*
X019815Y004112D01*
X019775Y004097D01*
X019734Y004086D01*
X019692Y004079D01*
X019650Y004076D01*
X019607Y004077D01*
X019565Y004082D01*
X019523Y004091D01*
X019483Y004104D01*
X019444Y004120D01*
X019406Y004140D01*
X019371Y004164D01*
X019338Y004190D01*
X019308Y004220D01*
X019280Y004253D01*
X019256Y004287D01*
X019235Y004324D01*
X019217Y004363D01*
X019204Y004403D01*
X019194Y004445D01*
X019188Y004487D01*
X019186Y004529D01*
M02*
