G75*
%MOIN*%
%OFA0B0*%
%FSLAX24Y24*%
%IPPOS*%
%LPD*%
%AMOC8*
5,1,8,0,0,1.08239X$1,22.5*
%
%ADD10C,0.0740*%
%ADD11C,0.0000*%
%ADD12C,0.0630*%
%ADD13R,0.0630X0.0630*%
%ADD14C,0.0160*%
%ADD15C,0.0356*%
%ADD16C,0.0472*%
%ADD17C,0.0413*%
%ADD18C,0.0240*%
%ADD19C,0.0120*%
%ADD20C,0.0320*%
D10*
X007231Y013739D02*
X007231Y014479D01*
X008231Y014479D02*
X008231Y013739D01*
X009231Y013739D02*
X009231Y014479D01*
X010231Y014479D02*
X010231Y013739D01*
X011231Y013739D02*
X011231Y014479D01*
X012231Y014479D02*
X012231Y013739D01*
X013231Y013739D02*
X013231Y014479D01*
X014231Y014479D02*
X014231Y013739D01*
D11*
X020298Y000509D02*
X001051Y000509D01*
X001051Y004008D01*
X000727Y004008D01*
X000727Y005767D01*
X000519Y005767D01*
X000519Y006530D01*
X000727Y006530D01*
X000727Y007040D01*
X001548Y007040D01*
X001548Y007850D01*
X000727Y007850D01*
X000727Y012364D01*
X006739Y012364D01*
X006739Y014484D01*
X006739Y015484D01*
X007739Y015484D01*
X008739Y015484D01*
X009739Y015484D01*
X010739Y015484D01*
X011739Y015484D01*
X012739Y015484D01*
X013739Y015484D01*
X014739Y015484D01*
X014739Y014484D01*
X014739Y012364D01*
X020622Y012364D01*
X020622Y010929D01*
X020622Y010929D01*
X020622Y008614D01*
X019801Y008614D01*
X019801Y007850D01*
X020622Y007850D01*
X020622Y006530D01*
X020831Y006530D01*
X020831Y005767D01*
X020622Y005767D01*
X020622Y004008D01*
X020298Y004008D01*
X020298Y000509D01*
X019186Y004529D02*
X019188Y004571D01*
X019194Y004613D01*
X019204Y004655D01*
X019217Y004695D01*
X019235Y004734D01*
X019256Y004771D01*
X019280Y004805D01*
X019308Y004838D01*
X019338Y004868D01*
X019371Y004894D01*
X019406Y004918D01*
X019444Y004938D01*
X019483Y004954D01*
X019523Y004967D01*
X019565Y004976D01*
X019607Y004981D01*
X019650Y004982D01*
X019692Y004979D01*
X019734Y004972D01*
X019775Y004961D01*
X019815Y004946D01*
X019853Y004928D01*
X019890Y004906D01*
X019924Y004881D01*
X019956Y004853D01*
X019984Y004822D01*
X020010Y004788D01*
X020033Y004752D01*
X020052Y004715D01*
X020068Y004675D01*
X020080Y004634D01*
X020088Y004593D01*
X020092Y004550D01*
X020092Y004508D01*
X020088Y004465D01*
X020080Y004424D01*
X020068Y004383D01*
X020052Y004343D01*
X020033Y004306D01*
X020010Y004270D01*
X019984Y004236D01*
X019956Y004205D01*
X019924Y004177D01*
X019890Y004152D01*
X019853Y004130D01*
X019815Y004112D01*
X019775Y004097D01*
X019734Y004086D01*
X019692Y004079D01*
X019650Y004076D01*
X019607Y004077D01*
X019565Y004082D01*
X019523Y004091D01*
X019483Y004104D01*
X019444Y004120D01*
X019406Y004140D01*
X019371Y004164D01*
X019338Y004190D01*
X019308Y004220D01*
X019280Y004253D01*
X019256Y004287D01*
X019235Y004324D01*
X019217Y004363D01*
X019204Y004403D01*
X019194Y004445D01*
X019188Y004487D01*
X019186Y004529D01*
X010343Y012366D02*
X010345Y012405D01*
X010351Y012444D01*
X010361Y012482D01*
X010374Y012519D01*
X010391Y012554D01*
X010411Y012588D01*
X010435Y012619D01*
X010462Y012648D01*
X010491Y012674D01*
X010523Y012697D01*
X010557Y012717D01*
X010593Y012733D01*
X010630Y012745D01*
X010669Y012754D01*
X010708Y012759D01*
X010747Y012760D01*
X010786Y012757D01*
X010825Y012750D01*
X010862Y012739D01*
X010899Y012725D01*
X010934Y012707D01*
X010967Y012686D01*
X010998Y012661D01*
X011026Y012634D01*
X011051Y012604D01*
X011073Y012571D01*
X011092Y012537D01*
X011107Y012501D01*
X011119Y012463D01*
X011127Y012425D01*
X011131Y012386D01*
X011131Y012346D01*
X011127Y012307D01*
X011119Y012269D01*
X011107Y012231D01*
X011092Y012195D01*
X011073Y012161D01*
X011051Y012128D01*
X011026Y012098D01*
X010998Y012071D01*
X010967Y012046D01*
X010934Y012025D01*
X010899Y012007D01*
X010862Y011993D01*
X010825Y011982D01*
X010786Y011975D01*
X010747Y011972D01*
X010708Y011973D01*
X010669Y011978D01*
X010630Y011987D01*
X010593Y011999D01*
X010557Y012015D01*
X010523Y012035D01*
X010491Y012058D01*
X010462Y012084D01*
X010435Y012113D01*
X010411Y012144D01*
X010391Y012178D01*
X010374Y012213D01*
X010361Y012250D01*
X010351Y012288D01*
X010345Y012327D01*
X010343Y012366D01*
D12*
X018180Y007938D03*
X019180Y007938D03*
X019180Y006938D03*
X018180Y006938D03*
X018180Y005938D03*
D13*
X019180Y005938D03*
D14*
X019180Y005438D01*
X019185Y005432D01*
X019185Y005235D01*
X018767Y004816D01*
X017430Y004816D01*
X017295Y004463D02*
X016058Y004463D01*
X016058Y004513D02*
X016001Y004652D01*
X015894Y004758D01*
X015755Y004816D01*
X015605Y004816D01*
X015466Y004758D01*
X015425Y004717D01*
X013979Y004717D01*
X014047Y004785D01*
X014138Y004785D01*
X014288Y004847D01*
X014402Y004962D01*
X014464Y005111D01*
X014464Y005273D01*
X014402Y005422D01*
X014288Y005537D01*
X014138Y005599D01*
X013977Y005599D01*
X013827Y005537D01*
X013713Y005422D01*
X013651Y005273D01*
X013651Y005181D01*
X013562Y005092D01*
X013353Y005092D01*
X014796Y006535D01*
X015186Y006535D01*
X015177Y006513D01*
X015177Y006362D01*
X015234Y006223D01*
X015253Y006204D01*
X015284Y006131D01*
X015659Y005756D01*
X015749Y005666D01*
X015866Y005618D01*
X017772Y005618D01*
X017888Y005501D01*
X017899Y005497D01*
X017899Y005319D01*
X017881Y005276D01*
X017881Y005125D01*
X017893Y005096D01*
X017685Y005096D01*
X017644Y005137D01*
X017505Y005194D01*
X017355Y005194D01*
X017216Y005137D01*
X017109Y005030D01*
X017052Y004891D01*
X017052Y004741D01*
X017109Y004602D01*
X017216Y004495D01*
X017355Y004438D01*
X017505Y004438D01*
X017644Y004495D01*
X017685Y004536D01*
X018823Y004536D01*
X018926Y004579D01*
X018986Y004639D01*
X018986Y004399D01*
X019085Y004159D01*
X019269Y003975D01*
X019509Y003876D01*
X019768Y003876D01*
X020008Y003975D01*
X020098Y004065D01*
X020098Y003075D01*
X005977Y003075D01*
X006001Y003098D01*
X006058Y003237D01*
X006058Y003388D01*
X006001Y003527D01*
X005894Y003633D01*
X005755Y003691D01*
X005605Y003691D01*
X005466Y003633D01*
X005359Y003527D01*
X005335Y003467D01*
X003649Y003467D01*
X003683Y003550D01*
X003683Y003607D01*
X004243Y004167D01*
X004297Y004036D01*
X004403Y003929D01*
X004542Y003872D01*
X004600Y003872D01*
X004630Y003841D01*
X004709Y003763D01*
X004812Y003720D01*
X008060Y003720D01*
X008052Y003700D01*
X008052Y003550D01*
X008109Y003411D01*
X008216Y003304D01*
X008355Y003247D01*
X008505Y003247D01*
X008644Y003304D01*
X008685Y003345D01*
X013675Y003345D01*
X013716Y003304D01*
X013855Y003247D01*
X014005Y003247D01*
X014144Y003304D01*
X014251Y003411D01*
X014308Y003550D01*
X014308Y003700D01*
X014251Y003839D01*
X014144Y003946D01*
X014058Y003981D01*
X014058Y004075D01*
X014024Y004158D01*
X015425Y004158D01*
X015466Y004117D01*
X015605Y004059D01*
X015755Y004059D01*
X015894Y004117D01*
X016001Y004223D01*
X016058Y004362D01*
X016058Y004513D01*
X016013Y004621D02*
X017102Y004621D01*
X017052Y004780D02*
X015842Y004780D01*
X015518Y004780D02*
X014041Y004780D01*
X014379Y004938D02*
X017071Y004938D01*
X017176Y005097D02*
X014458Y005097D01*
X014464Y005255D02*
X017881Y005255D01*
X017893Y005097D02*
X017684Y005097D01*
X017899Y005414D02*
X014406Y005414D01*
X014203Y005572D02*
X017817Y005572D01*
X018180Y005938D02*
X018259Y005859D01*
X017430Y006000D02*
X017368Y005938D01*
X016493Y006813D02*
X016490Y006815D01*
X014680Y006815D01*
X013194Y005329D01*
X012009Y005329D01*
X011993Y005313D01*
X011618Y005688D02*
X011493Y005625D01*
X009930Y005625D01*
X009555Y006000D02*
X009305Y005750D01*
X007618Y005750D01*
X007243Y006125D01*
X006680Y006125D01*
X006243Y005835D02*
X006703Y005375D01*
X008430Y005375D01*
X008118Y006125D02*
X008055Y006125D01*
X007305Y007000D01*
X005805Y007000D01*
X005430Y007375D01*
X005430Y007813D01*
X005618Y008000D01*
X006743Y008000D01*
X009180Y008000D01*
X009618Y007563D01*
X010555Y007563D01*
X010493Y008250D02*
X011180Y008250D01*
X011555Y007875D01*
X011555Y006875D01*
X011993Y006438D01*
X012010Y006816D02*
X011835Y006991D01*
X011835Y007907D01*
X011859Y007848D01*
X011966Y007742D01*
X012105Y007684D01*
X012255Y007684D01*
X012394Y007742D01*
X012435Y007783D01*
X012611Y007783D01*
X012714Y007825D01*
X013088Y008199D01*
X013088Y006605D01*
X012803Y006280D01*
X012337Y006280D01*
X012371Y006362D01*
X012371Y006513D01*
X012313Y006652D01*
X012207Y006758D01*
X012068Y006816D01*
X012010Y006816D01*
X011986Y006840D02*
X013088Y006840D01*
X013088Y006682D02*
X012283Y006682D01*
X012366Y006523D02*
X013016Y006523D01*
X012877Y006365D02*
X012371Y006365D01*
X012930Y006000D02*
X009555Y006000D01*
X009993Y006438D02*
X008930Y007500D01*
X007055Y007500D01*
X006680Y006625D02*
X006430Y006625D01*
X006243Y006438D01*
X006243Y005835D01*
X005805Y005750D02*
X006743Y004813D01*
X013678Y004813D01*
X014058Y005192D01*
X013912Y005572D02*
X013833Y005572D01*
X013709Y005414D02*
X013674Y005414D01*
X013651Y005255D02*
X013516Y005255D01*
X013566Y005097D02*
X013357Y005097D01*
X013118Y005688D02*
X015430Y008000D01*
X015085Y008156D02*
X015052Y008075D01*
X015052Y008018D01*
X013647Y006613D01*
X013647Y008184D01*
X013693Y008184D01*
X013832Y008242D01*
X013938Y008348D01*
X013996Y008487D01*
X013996Y008638D01*
X013938Y008777D01*
X013832Y008883D01*
X013693Y008941D01*
X013621Y008941D01*
X013621Y009013D01*
X013563Y009152D01*
X013457Y009258D01*
X013318Y009316D01*
X013224Y009316D01*
X013188Y009402D01*
X013082Y009508D01*
X012943Y009566D01*
X012792Y009566D01*
X012653Y009508D01*
X012547Y009402D01*
X012489Y009263D01*
X012489Y009205D01*
X012179Y008895D01*
X012068Y008941D01*
X011917Y008941D01*
X011778Y008883D01*
X011672Y008777D01*
X011614Y008638D01*
X011614Y008487D01*
X011672Y008348D01*
X011778Y008242D01*
X011835Y008218D01*
X011802Y008138D01*
X011802Y008011D01*
X011792Y008034D01*
X011714Y008112D01*
X011339Y008487D01*
X011236Y008530D01*
X010747Y008530D01*
X010707Y008571D01*
X010568Y008628D01*
X010417Y008628D01*
X010278Y008571D01*
X010172Y008464D01*
X010114Y008325D01*
X010114Y008276D01*
X009502Y008806D01*
X009502Y009228D01*
X009558Y009362D01*
X009558Y009513D01*
X009501Y009652D01*
X009394Y009758D01*
X009255Y009816D01*
X009105Y009816D01*
X008966Y009758D01*
X008859Y009652D01*
X008802Y009513D01*
X008802Y009362D01*
X008859Y009223D01*
X008966Y009117D01*
X008983Y009110D01*
X008983Y008730D01*
X008979Y008721D01*
X008983Y008678D01*
X008983Y008636D01*
X008986Y008627D01*
X008987Y008617D01*
X009006Y008579D01*
X009022Y008540D01*
X009029Y008533D01*
X009033Y008525D01*
X009065Y008497D01*
X009095Y008467D01*
X009104Y008463D01*
X009821Y007842D01*
X009733Y007842D01*
X009417Y008159D01*
X009339Y008237D01*
X009236Y008280D01*
X008432Y008280D01*
X008438Y008286D01*
X008496Y008425D01*
X009148Y008425D01*
X009268Y008267D02*
X009331Y008267D01*
X009468Y008108D02*
X009514Y008108D01*
X009626Y007950D02*
X009697Y007950D01*
X009942Y008425D02*
X010156Y008425D01*
X010310Y008584D02*
X009759Y008584D01*
X009577Y008742D02*
X011658Y008742D01*
X011614Y008584D02*
X010675Y008584D01*
X011401Y008425D02*
X011640Y008425D01*
X011559Y008267D02*
X011754Y008267D01*
X011718Y008108D02*
X011802Y008108D01*
X011868Y008000D02*
X011430Y008438D01*
X011430Y009125D01*
X011805Y009500D01*
X012430Y009500D01*
X012536Y009376D02*
X009558Y009376D01*
X009549Y009535D02*
X012717Y009535D01*
X013018Y009535D02*
X013327Y009535D01*
X013199Y009376D02*
X013492Y009376D01*
X013497Y009218D02*
X013656Y009218D01*
X013601Y009059D02*
X013821Y009059D01*
X013790Y008901D02*
X013985Y008901D01*
X013952Y008742D02*
X014150Y008742D01*
X013996Y008584D02*
X014315Y008584D01*
X014479Y008425D02*
X013970Y008425D01*
X013856Y008267D02*
X014643Y008267D01*
X014646Y008263D02*
X014649Y008262D01*
X014651Y008260D01*
X014700Y008240D01*
X014749Y008220D01*
X014752Y008220D01*
X014755Y008219D01*
X014808Y008220D01*
X014988Y008220D01*
X015028Y008179D01*
X015085Y008156D01*
X015065Y008108D02*
X013647Y008108D01*
X013647Y007950D02*
X014984Y007950D01*
X014825Y007791D02*
X013647Y007791D01*
X013647Y007633D02*
X014667Y007633D01*
X014508Y007474D02*
X013647Y007474D01*
X013647Y007316D02*
X014350Y007316D01*
X014191Y007157D02*
X013647Y007157D01*
X013647Y006999D02*
X014033Y006999D01*
X013993Y007125D02*
X013993Y008063D01*
X014055Y008125D01*
X014609Y008300D02*
X014646Y008263D01*
X014609Y008300D02*
X013005Y009845D01*
X005372Y009845D01*
X005332Y009804D01*
X005193Y009747D01*
X005042Y009747D01*
X004903Y009804D01*
X004797Y009911D01*
X004739Y010050D01*
X004739Y010200D01*
X004797Y010339D01*
X004903Y010446D01*
X005042Y010503D01*
X005193Y010503D01*
X005332Y010446D01*
X005372Y010405D01*
X013115Y010405D01*
X013168Y010406D01*
X013170Y010405D01*
X013173Y010405D01*
X013222Y010385D01*
X013272Y010365D01*
X013274Y010363D01*
X013276Y010362D01*
X013314Y010325D01*
X014398Y009281D01*
X014422Y009339D01*
X014528Y009446D01*
X014667Y009503D01*
X014725Y009503D01*
X015693Y010471D01*
X015771Y010550D01*
X015874Y010592D01*
X016363Y010592D01*
X016403Y010633D01*
X016542Y010691D01*
X016693Y010691D01*
X016832Y010633D01*
X016938Y010527D01*
X016970Y010450D01*
X017028Y010508D01*
X017167Y010566D01*
X017281Y010566D01*
X017127Y010720D01*
X012898Y010720D01*
X012739Y010600D01*
X012714Y010575D01*
X012695Y010567D01*
X012678Y010555D01*
X012644Y010546D01*
X012611Y010533D01*
X012590Y010533D01*
X012571Y010527D01*
X012535Y010533D01*
X008497Y010533D01*
X008457Y010492D01*
X008318Y010434D01*
X008167Y010434D01*
X008028Y010492D01*
X007922Y010598D01*
X007864Y010737D01*
X007864Y010888D01*
X007922Y011027D01*
X008028Y011133D01*
X008167Y011191D01*
X008318Y011191D01*
X008457Y011133D01*
X008497Y011092D01*
X012462Y011092D01*
X012621Y011212D01*
X012646Y011237D01*
X012665Y011245D01*
X012682Y011257D01*
X012716Y011266D01*
X012749Y011280D01*
X012770Y011280D01*
X012789Y011285D01*
X012825Y011280D01*
X017298Y011280D01*
X017401Y011237D01*
X017480Y011159D01*
X018417Y010221D01*
X018460Y010118D01*
X018460Y009505D01*
X018501Y009464D01*
X018558Y009325D01*
X018558Y009175D01*
X018524Y009092D01*
X018861Y009092D01*
X018964Y009050D01*
X019339Y008675D01*
X019417Y008596D01*
X019460Y008493D01*
X019460Y008379D01*
X019472Y008374D01*
X019601Y008245D01*
X019601Y008697D01*
X019718Y008814D01*
X020422Y008814D01*
X020422Y010846D01*
X020422Y010846D01*
X020422Y012164D01*
X014656Y012164D01*
X014539Y012281D01*
X014539Y013283D01*
X014519Y013269D01*
X014442Y013229D01*
X014360Y013203D01*
X014274Y013189D01*
X014261Y013189D01*
X014261Y014079D01*
X014201Y014079D01*
X014201Y013189D01*
X014188Y013189D01*
X014102Y013203D01*
X014020Y013229D01*
X013943Y013269D01*
X013873Y013320D01*
X013811Y013381D01*
X013760Y013451D01*
X013743Y013486D01*
X013714Y013416D01*
X013554Y013256D01*
X013344Y013169D01*
X013117Y013169D01*
X012908Y013256D01*
X012748Y013416D01*
X012731Y013457D01*
X012714Y013416D01*
X012554Y013256D01*
X012344Y013169D01*
X012117Y013169D01*
X011908Y013256D01*
X011748Y013416D01*
X011731Y013457D01*
X011714Y013416D01*
X011554Y013256D01*
X011344Y013169D01*
X011117Y013169D01*
X010908Y013256D01*
X010748Y013416D01*
X010731Y013457D01*
X010714Y013416D01*
X010554Y013256D01*
X010344Y013169D01*
X010117Y013169D01*
X009908Y013256D01*
X009748Y013416D01*
X009731Y013457D01*
X009714Y013416D01*
X009554Y013256D01*
X009344Y013169D01*
X009117Y013169D01*
X008908Y013256D01*
X008748Y013416D01*
X008731Y013457D01*
X008714Y013416D01*
X008554Y013256D01*
X008344Y013169D01*
X008117Y013169D01*
X007908Y013256D01*
X007748Y013416D01*
X007731Y013457D01*
X007714Y013416D01*
X007554Y013256D01*
X007344Y013169D01*
X007117Y013169D01*
X006939Y013243D01*
X006939Y012281D01*
X006822Y012164D01*
X000927Y012164D01*
X000927Y008050D01*
X001631Y008050D01*
X001748Y007933D01*
X001748Y006957D01*
X001631Y006840D01*
X000927Y006840D01*
X000927Y006448D01*
X000810Y006330D01*
X000719Y006330D01*
X000719Y005967D01*
X000810Y005967D01*
X000927Y005849D01*
X000927Y004208D01*
X001134Y004208D01*
X001150Y004192D01*
X001150Y006056D01*
X001193Y006159D01*
X002693Y007659D01*
X002693Y007659D01*
X002771Y007737D01*
X002874Y007780D01*
X004738Y007780D01*
X004778Y007821D01*
X004917Y007878D01*
X005068Y007878D01*
X005150Y007844D01*
X005150Y007868D01*
X005193Y007971D01*
X005380Y008159D01*
X005442Y008220D01*
X005060Y008220D01*
X005019Y008179D01*
X004880Y008122D01*
X004730Y008122D01*
X004591Y008179D01*
X004484Y008286D01*
X004427Y008425D01*
X000927Y008425D01*
X000927Y008267D02*
X004504Y008267D01*
X004427Y008425D02*
X004427Y008575D01*
X004484Y008714D01*
X004591Y008821D01*
X004730Y008878D01*
X004880Y008878D01*
X005019Y008821D01*
X005060Y008780D01*
X007863Y008780D01*
X007903Y008821D01*
X008042Y008878D01*
X008193Y008878D01*
X008332Y008821D01*
X008438Y008714D01*
X008496Y008575D01*
X008496Y008425D01*
X008492Y008584D02*
X009004Y008584D01*
X008983Y008742D02*
X008410Y008742D01*
X008118Y008500D02*
X004805Y008500D01*
X004512Y008742D02*
X000927Y008742D01*
X000927Y008584D02*
X004430Y008584D01*
X005184Y007950D02*
X001732Y007950D01*
X001748Y007791D02*
X004749Y007791D01*
X004993Y007500D02*
X002930Y007500D01*
X001430Y006000D01*
X001430Y004063D01*
X002243Y003188D01*
X005493Y003188D01*
X005680Y003313D01*
X006007Y003512D02*
X008068Y003512D01*
X008052Y003670D02*
X005805Y003670D01*
X005555Y003670D02*
X003746Y003670D01*
X003667Y003512D02*
X005353Y003512D01*
X004868Y004000D02*
X013680Y004000D01*
X014029Y004146D02*
X015437Y004146D01*
X015680Y004438D02*
X006618Y004438D01*
X005993Y005063D01*
X005555Y005250D02*
X003930Y005250D01*
X002680Y004000D01*
X003305Y003625D02*
X004305Y004625D01*
X005805Y004625D01*
X004868Y004000D02*
X004618Y004250D01*
X004346Y003987D02*
X004063Y003987D01*
X004221Y004146D02*
X004252Y004146D01*
X003904Y003829D02*
X004643Y003829D01*
X006058Y003353D02*
X008167Y003353D01*
X008430Y003625D02*
X013930Y003625D01*
X014193Y003353D02*
X020098Y003353D01*
X020098Y003195D02*
X006040Y003195D01*
X005805Y005750D02*
X002680Y005750D01*
X002180Y005250D01*
X002180Y004625D01*
X001150Y004621D02*
X000927Y004621D01*
X000927Y004463D02*
X001150Y004463D01*
X001150Y004304D02*
X000927Y004304D01*
X000927Y004780D02*
X001150Y004780D01*
X001150Y004938D02*
X000927Y004938D01*
X000927Y005097D02*
X001150Y005097D01*
X001150Y005255D02*
X000927Y005255D01*
X000927Y005414D02*
X001150Y005414D01*
X001150Y005572D02*
X000927Y005572D01*
X000927Y005731D02*
X001150Y005731D01*
X001150Y005889D02*
X000888Y005889D01*
X000719Y006048D02*
X001150Y006048D01*
X001240Y006206D02*
X000719Y006206D01*
X000844Y006365D02*
X001399Y006365D01*
X001557Y006523D02*
X000927Y006523D01*
X000927Y006682D02*
X001716Y006682D01*
X001632Y006840D02*
X001874Y006840D01*
X001748Y006999D02*
X002033Y006999D01*
X002191Y007157D02*
X001748Y007157D01*
X001748Y007316D02*
X002350Y007316D01*
X002508Y007474D02*
X001748Y007474D01*
X001748Y007633D02*
X002667Y007633D01*
X000927Y008108D02*
X005330Y008108D01*
X004856Y009852D02*
X000927Y009852D01*
X000927Y010010D02*
X004756Y010010D01*
X004739Y010169D02*
X000927Y010169D01*
X000927Y010327D02*
X004792Y010327D01*
X005000Y010486D02*
X000927Y010486D01*
X000927Y010644D02*
X007903Y010644D01*
X007864Y010803D02*
X000927Y010803D01*
X000927Y010961D02*
X007895Y010961D01*
X008015Y011120D02*
X000927Y011120D01*
X000927Y011278D02*
X012745Y011278D01*
X012498Y011120D02*
X008470Y011120D01*
X008243Y010813D02*
X012555Y010813D01*
X012805Y011000D01*
X017243Y011000D01*
X018180Y010063D01*
X018180Y009250D01*
X018537Y009376D02*
X020422Y009376D01*
X020422Y009218D02*
X018558Y009218D01*
X018460Y009535D02*
X020422Y009535D01*
X020422Y009693D02*
X018460Y009693D01*
X018460Y009852D02*
X020422Y009852D01*
X020422Y010010D02*
X018460Y010010D01*
X018439Y010169D02*
X020422Y010169D01*
X020422Y010327D02*
X018311Y010327D01*
X018153Y010486D02*
X020422Y010486D01*
X020422Y010644D02*
X017994Y010644D01*
X017836Y010803D02*
X020422Y010803D01*
X020422Y010961D02*
X017677Y010961D01*
X017519Y011120D02*
X020422Y011120D01*
X020422Y011278D02*
X017303Y011278D01*
X017203Y010644D02*
X016805Y010644D01*
X016955Y010486D02*
X017006Y010486D01*
X017243Y010188D02*
X015930Y008688D01*
X015930Y007438D01*
X016493Y006813D02*
X017180Y007563D01*
X017455Y007822D02*
X017464Y007825D01*
X017700Y008061D01*
X017697Y008053D01*
X017691Y008015D01*
X018103Y008015D01*
X018103Y008426D01*
X018064Y008420D01*
X018056Y008418D01*
X018171Y008533D01*
X018689Y008533D01*
X018868Y008354D01*
X018743Y008229D01*
X018665Y008040D01*
X018665Y008039D01*
X018663Y008053D01*
X018639Y008127D01*
X018603Y008197D01*
X018558Y008260D01*
X018502Y008315D01*
X018439Y008361D01*
X018370Y008396D01*
X018296Y008420D01*
X018257Y008426D01*
X018257Y008015D01*
X018103Y008015D01*
X018103Y007860D01*
X017691Y007860D01*
X017697Y007822D01*
X017721Y007748D01*
X017757Y007678D01*
X017802Y007615D01*
X017858Y007560D01*
X017921Y007514D01*
X017990Y007479D01*
X018064Y007455D01*
X018078Y007452D01*
X018078Y007452D01*
X017888Y007374D01*
X017743Y007229D01*
X017730Y007197D01*
X017455Y007197D01*
X017402Y007250D01*
X017501Y007348D01*
X017558Y007487D01*
X017558Y007638D01*
X017501Y007777D01*
X017455Y007822D01*
X017486Y007791D02*
X017707Y007791D01*
X017790Y007633D02*
X017558Y007633D01*
X017553Y007474D02*
X018005Y007474D01*
X017830Y007316D02*
X017468Y007316D01*
X018257Y007860D02*
X018257Y008015D01*
X018665Y008015D01*
X018665Y007860D01*
X018257Y007860D01*
X018257Y007950D02*
X018665Y007950D01*
X018645Y008108D02*
X018693Y008108D01*
X018781Y008267D02*
X018551Y008267D01*
X018680Y008375D02*
X018305Y007938D01*
X018180Y007938D01*
X018103Y007950D02*
X017588Y007950D01*
X017305Y008063D02*
X018055Y008813D01*
X018805Y008813D01*
X019180Y008438D01*
X019180Y007938D01*
X019579Y008267D02*
X019601Y008267D01*
X019601Y008425D02*
X019460Y008425D01*
X019423Y008584D02*
X019601Y008584D01*
X019646Y008742D02*
X019271Y008742D01*
X019113Y008901D02*
X020422Y008901D01*
X020422Y009059D02*
X018942Y009059D01*
X018797Y008425D02*
X018266Y008425D01*
X018257Y008425D02*
X018103Y008425D01*
X018094Y008425D02*
X018063Y008425D01*
X018103Y008267D02*
X018257Y008267D01*
X018257Y008108D02*
X018103Y008108D01*
X017305Y008063D02*
X016805Y008063D01*
X016305Y008500D01*
X015243Y008500D02*
X014805Y008500D01*
X013118Y010125D01*
X005118Y010125D01*
X005235Y010486D02*
X008044Y010486D01*
X008441Y010486D02*
X015707Y010486D01*
X015549Y010327D02*
X013311Y010327D01*
X013476Y010169D02*
X015390Y010169D01*
X015232Y010010D02*
X013641Y010010D01*
X013805Y009852D02*
X015073Y009852D01*
X014915Y009693D02*
X013970Y009693D01*
X014134Y009535D02*
X014756Y009535D01*
X014459Y009376D02*
X014299Y009376D01*
X014743Y009125D02*
X015930Y010313D01*
X016618Y010313D01*
X016430Y010644D02*
X012797Y010644D01*
X013162Y009693D02*
X009459Y009693D01*
X009502Y009218D02*
X012489Y009218D01*
X012343Y009059D02*
X009502Y009059D01*
X009502Y008901D02*
X011820Y008901D01*
X012165Y008901D02*
X012185Y008901D01*
X012243Y008563D02*
X011993Y008563D01*
X012243Y008563D02*
X012868Y009188D01*
X013243Y008938D02*
X013243Y008750D01*
X012555Y008063D01*
X012180Y008063D01*
X011868Y008000D02*
X011868Y007875D01*
X012243Y007500D01*
X012618Y007500D01*
X012930Y007813D01*
X013088Y007791D02*
X012631Y007791D01*
X012838Y007950D02*
X013088Y007950D01*
X013088Y008108D02*
X012996Y008108D01*
X013368Y008313D02*
X013618Y008563D01*
X013368Y008313D02*
X013368Y006500D01*
X012930Y006000D01*
X013118Y005688D02*
X011618Y005688D01*
X010430Y006438D02*
X009993Y006438D01*
X011835Y006999D02*
X013088Y006999D01*
X013088Y007157D02*
X011835Y007157D01*
X011835Y007316D02*
X013088Y007316D01*
X013088Y007474D02*
X011835Y007474D01*
X011835Y007633D02*
X013088Y007633D01*
X013647Y006840D02*
X013874Y006840D01*
X013716Y006682D02*
X013647Y006682D01*
X014308Y006048D02*
X015367Y006048D01*
X015252Y006206D02*
X014467Y006206D01*
X014625Y006365D02*
X015177Y006365D01*
X015181Y006523D02*
X014784Y006523D01*
X014150Y005889D02*
X015526Y005889D01*
X015684Y005731D02*
X013991Y005731D01*
X016034Y004304D02*
X019025Y004304D01*
X018986Y004463D02*
X017565Y004463D01*
X018968Y004621D02*
X018986Y004621D01*
X019098Y004146D02*
X015923Y004146D01*
X014308Y003670D02*
X020098Y003670D01*
X020098Y003512D02*
X014292Y003512D01*
X014255Y003829D02*
X020098Y003829D01*
X020098Y003987D02*
X020020Y003987D01*
X019257Y003987D02*
X014058Y003987D01*
X011917Y007791D02*
X011835Y007791D01*
X008983Y008901D02*
X000927Y008901D01*
X000927Y009059D02*
X008983Y009059D01*
X008865Y009218D02*
X000927Y009218D01*
X000927Y009376D02*
X008802Y009376D01*
X008811Y009535D02*
X000927Y009535D01*
X000927Y009693D02*
X008901Y009693D01*
X010400Y011862D02*
X010619Y011772D01*
X010855Y011772D01*
X011073Y011862D01*
X011240Y012029D01*
X011330Y012247D01*
X011330Y012484D01*
X011240Y012702D01*
X011073Y012869D01*
X010855Y012959D01*
X010619Y012959D01*
X010400Y012869D01*
X010233Y012702D01*
X010143Y012484D01*
X010143Y012247D01*
X010233Y012029D01*
X010400Y011862D01*
X010351Y011912D02*
X000927Y011912D01*
X000927Y011754D02*
X020422Y011754D01*
X020422Y011912D02*
X011123Y011912D01*
X011257Y012071D02*
X020422Y012071D01*
X020422Y011595D02*
X000927Y011595D01*
X000927Y011437D02*
X020422Y011437D01*
X014591Y012229D02*
X011323Y012229D01*
X011330Y012388D02*
X014539Y012388D01*
X014539Y012546D02*
X011305Y012546D01*
X011237Y012705D02*
X014539Y012705D01*
X014539Y012863D02*
X011079Y012863D01*
X011091Y013180D02*
X010371Y013180D01*
X010636Y013339D02*
X010825Y013339D01*
X011371Y013180D02*
X012091Y013180D01*
X012371Y013180D02*
X013091Y013180D01*
X012825Y013339D02*
X012636Y013339D01*
X011825Y013339D02*
X011636Y013339D01*
X010395Y012863D02*
X006939Y012863D01*
X006939Y012705D02*
X010236Y012705D01*
X010169Y012546D02*
X006939Y012546D01*
X006939Y012388D02*
X010143Y012388D01*
X010151Y012229D02*
X006887Y012229D01*
X006939Y013022D02*
X014539Y013022D01*
X014539Y013180D02*
X013371Y013180D01*
X013636Y013339D02*
X013854Y013339D01*
X014201Y013339D02*
X014261Y013339D01*
X014261Y013497D02*
X014201Y013497D01*
X014201Y013656D02*
X014261Y013656D01*
X014261Y013814D02*
X014201Y013814D01*
X014201Y013973D02*
X014261Y013973D01*
X014261Y014139D02*
X014201Y014139D01*
X014201Y015029D01*
X014188Y015029D01*
X014102Y015016D01*
X014020Y014989D01*
X013943Y014949D01*
X013873Y014899D01*
X013811Y014837D01*
X013760Y014767D01*
X013743Y014733D01*
X013714Y014802D01*
X013554Y014962D01*
X013344Y015049D01*
X013117Y015049D01*
X012908Y014962D01*
X012748Y014802D01*
X012731Y014761D01*
X012714Y014802D01*
X012554Y014962D01*
X012344Y015049D01*
X012117Y015049D01*
X011908Y014962D01*
X011748Y014802D01*
X011731Y014761D01*
X011714Y014802D01*
X011554Y014962D01*
X011344Y015049D01*
X011117Y015049D01*
X010908Y014962D01*
X010748Y014802D01*
X010731Y014761D01*
X010714Y014802D01*
X010554Y014962D01*
X010344Y015049D01*
X010117Y015049D01*
X009908Y014962D01*
X009748Y014802D01*
X009731Y014761D01*
X009714Y014802D01*
X009554Y014962D01*
X009344Y015049D01*
X009117Y015049D01*
X008908Y014962D01*
X008748Y014802D01*
X008731Y014761D01*
X008714Y014802D01*
X008554Y014962D01*
X008344Y015049D01*
X008117Y015049D01*
X007908Y014962D01*
X007748Y014802D01*
X007731Y014761D01*
X007714Y014802D01*
X007554Y014962D01*
X007344Y015049D01*
X007117Y015049D01*
X006939Y014975D01*
X006939Y015284D01*
X014539Y015284D01*
X014539Y014935D01*
X014519Y014949D01*
X014442Y014989D01*
X014360Y015016D01*
X014274Y015029D01*
X014261Y015029D01*
X014261Y014139D01*
X014261Y014290D02*
X014201Y014290D01*
X014201Y014448D02*
X014261Y014448D01*
X014261Y014607D02*
X014201Y014607D01*
X014201Y014765D02*
X014261Y014765D01*
X014261Y014924D02*
X014201Y014924D01*
X014539Y015082D02*
X006939Y015082D01*
X006939Y015241D02*
X014539Y015241D01*
X013907Y014924D02*
X013592Y014924D01*
X013729Y014765D02*
X013759Y014765D01*
X012869Y014924D02*
X012592Y014924D01*
X012729Y014765D02*
X012732Y014765D01*
X011869Y014924D02*
X011592Y014924D01*
X011729Y014765D02*
X011732Y014765D01*
X010869Y014924D02*
X010592Y014924D01*
X010729Y014765D02*
X010732Y014765D01*
X009869Y014924D02*
X009592Y014924D01*
X009729Y014765D02*
X009732Y014765D01*
X008869Y014924D02*
X008592Y014924D01*
X008729Y014765D02*
X008732Y014765D01*
X007869Y014924D02*
X007592Y014924D01*
X007729Y014765D02*
X007732Y014765D01*
X007636Y013339D02*
X007825Y013339D01*
X008091Y013180D02*
X007371Y013180D01*
X007091Y013180D02*
X006939Y013180D01*
X008371Y013180D02*
X009091Y013180D01*
X009371Y013180D02*
X010091Y013180D01*
X009825Y013339D02*
X009636Y013339D01*
X008825Y013339D02*
X008636Y013339D01*
X010216Y012071D02*
X000927Y012071D01*
D15*
X005118Y010125D03*
X004805Y008500D03*
X004993Y007500D03*
X006743Y008000D03*
X007055Y007500D03*
X006680Y006625D03*
X006680Y006125D03*
X005555Y005250D03*
X005993Y005063D03*
X005805Y004625D03*
X004618Y004250D03*
X004555Y003688D03*
X005680Y003313D03*
X003305Y003625D03*
X002680Y004000D03*
X002180Y004625D03*
X008118Y006125D03*
X008430Y005375D03*
X009930Y005625D03*
X010430Y006438D03*
X009930Y007063D03*
X010555Y007563D03*
X010493Y008250D03*
X011993Y008563D03*
X012180Y008063D03*
X012930Y007813D03*
X013618Y008563D03*
X013243Y008938D03*
X012868Y009188D03*
X012430Y009500D03*
X014055Y008125D03*
X015243Y008500D03*
X015430Y008000D03*
X015930Y007438D03*
X017180Y007563D03*
X017180Y006938D03*
X017430Y006500D03*
X018259Y005201D03*
X017430Y004816D03*
X015680Y004438D03*
X013930Y003625D03*
X013680Y004000D03*
X011993Y005313D03*
X011993Y006438D03*
X013993Y007125D03*
X015555Y006438D03*
X016305Y008500D03*
X014743Y009125D03*
X016618Y010313D03*
X017243Y010188D03*
X018180Y009250D03*
X018680Y008375D03*
X019743Y006500D03*
X009180Y009438D03*
X008118Y008500D03*
X008243Y010813D03*
X008430Y003625D03*
D16*
X015555Y003750D03*
X018180Y004188D03*
X011743Y011625D03*
X013993Y013000D03*
X007993Y012188D03*
X007493Y010625D03*
X002180Y011250D03*
D17*
X006868Y003438D03*
X014058Y005192D03*
D18*
X015555Y006313D02*
X015930Y005938D01*
X017368Y005938D01*
X018180Y005938D01*
X019180Y006938D02*
X019305Y006938D01*
X019743Y006500D01*
X015555Y006438D02*
X015555Y006313D01*
D19*
X017180Y006938D02*
X018180Y006938D01*
X017430Y006500D02*
X017430Y006000D01*
X011180Y007313D02*
X011180Y007750D01*
X011055Y007875D01*
X010180Y007875D01*
X009243Y008688D01*
X009243Y009500D01*
X009180Y009438D01*
X011180Y007313D02*
X010930Y007063D01*
X009930Y007063D01*
D20*
X018259Y005859D02*
X018259Y005201D01*
M02*
