G75*
%MOIN*%
%OFA0B0*%
%FSLAX24Y24*%
%IPPOS*%
%LPD*%
%AMOC8*
5,1,8,0,0,1.08239X$1,22.5*
%
%ADD10R,0.0840X0.0300*%
%ADD11C,0.0780*%
%ADD12R,0.0540X0.0260*%
%ADD13R,0.0260X0.0540*%
%ADD14C,0.0000*%
%ADD15C,0.0946*%
%ADD16C,0.0827*%
%ADD17R,0.0552X0.2349*%
%ADD18R,0.0442X0.2205*%
%ADD19R,0.0355X0.0355*%
%ADD20R,0.0552X0.0670*%
%ADD21R,0.1418X0.0827*%
%ADD22R,0.0473X0.0788*%
%ADD23R,0.0465X0.0453*%
%ADD24R,0.0453X0.0465*%
%ADD25R,0.0670X0.0591*%
%ADD26C,0.0512*%
%ADD27C,0.0453*%
D10*
X003408Y006000D03*
X003408Y006500D03*
X003408Y007000D03*
X003408Y007500D03*
X003408Y008000D03*
X003408Y008500D03*
X003408Y009000D03*
X003408Y009500D03*
X005828Y009500D03*
X005828Y009000D03*
X005828Y008500D03*
X005828Y008000D03*
X005828Y007500D03*
X005828Y007000D03*
X005828Y006500D03*
X005828Y006000D03*
X008845Y006063D03*
X008845Y006563D03*
X008845Y007063D03*
X008845Y007563D03*
X008845Y008063D03*
X008845Y008563D03*
X008845Y009063D03*
X011265Y009063D03*
X011265Y008563D03*
X011265Y008063D03*
X011265Y007563D03*
X011265Y007063D03*
X011265Y006563D03*
X011265Y006063D03*
D11*
X011231Y013739D02*
X011231Y014479D01*
X012231Y014479D02*
X012231Y013739D01*
X013231Y013739D02*
X013231Y014479D01*
X014231Y014479D02*
X014231Y013739D01*
X010231Y013739D02*
X010231Y014479D01*
X009231Y014479D02*
X009231Y013739D01*
X008231Y013739D02*
X008231Y014479D01*
X007231Y014479D02*
X007231Y013739D01*
D12*
X014615Y008540D03*
X014615Y008225D03*
X014615Y007910D03*
X014615Y007595D03*
X014615Y007280D03*
X014615Y006965D03*
X014615Y006650D03*
X014615Y006335D03*
X017995Y006335D03*
X017995Y006650D03*
X017995Y006965D03*
X017995Y007280D03*
X017995Y007595D03*
X017995Y007910D03*
X017995Y008225D03*
X017995Y008540D03*
D13*
X017407Y009128D03*
X017092Y009128D03*
X016777Y009128D03*
X016462Y009128D03*
X016148Y009128D03*
X015833Y009128D03*
X015518Y009128D03*
X015203Y009128D03*
X015203Y005748D03*
X015518Y005748D03*
X015833Y005748D03*
X016148Y005748D03*
X016462Y005748D03*
X016777Y005748D03*
X017092Y005748D03*
X017407Y005748D03*
D14*
X020298Y000509D02*
X001051Y000509D01*
X001051Y004008D01*
X000727Y004008D01*
X000727Y005767D01*
X000519Y005767D01*
X000519Y006530D01*
X000727Y006530D01*
X000727Y007040D01*
X001548Y007040D01*
X001548Y007850D01*
X000727Y007850D01*
X000727Y012364D01*
X006739Y012364D01*
X006739Y014484D01*
X006739Y015484D01*
X007739Y015484D01*
X008739Y015484D01*
X009739Y015484D01*
X010739Y015484D01*
X011739Y015484D01*
X012739Y015484D01*
X013739Y015484D01*
X014739Y015484D01*
X014739Y014484D01*
X014739Y012364D01*
X020622Y012364D01*
X020622Y010929D01*
X020622Y010929D01*
X020622Y008614D01*
X019801Y008614D01*
X019801Y007850D01*
X020622Y007850D01*
X020622Y006530D01*
X020831Y006530D01*
X020831Y005767D01*
X020622Y005767D01*
X020622Y004008D01*
X020298Y004008D01*
X020298Y000509D01*
X019186Y004529D02*
X019188Y004571D01*
X019194Y004613D01*
X019204Y004655D01*
X019217Y004695D01*
X019235Y004734D01*
X019256Y004771D01*
X019280Y004805D01*
X019308Y004838D01*
X019338Y004868D01*
X019371Y004894D01*
X019406Y004918D01*
X019444Y004938D01*
X019483Y004954D01*
X019523Y004967D01*
X019565Y004976D01*
X019607Y004981D01*
X019650Y004982D01*
X019692Y004979D01*
X019734Y004972D01*
X019775Y004961D01*
X019815Y004946D01*
X019853Y004928D01*
X019890Y004906D01*
X019924Y004881D01*
X019956Y004853D01*
X019984Y004822D01*
X020010Y004788D01*
X020033Y004752D01*
X020052Y004715D01*
X020068Y004675D01*
X020080Y004634D01*
X020088Y004593D01*
X020092Y004550D01*
X020092Y004508D01*
X020088Y004465D01*
X020080Y004424D01*
X020068Y004383D01*
X020052Y004343D01*
X020033Y004306D01*
X020010Y004270D01*
X019984Y004236D01*
X019956Y004205D01*
X019924Y004177D01*
X019890Y004152D01*
X019853Y004130D01*
X019815Y004112D01*
X019775Y004097D01*
X019734Y004086D01*
X019692Y004079D01*
X019650Y004076D01*
X019607Y004077D01*
X019565Y004082D01*
X019523Y004091D01*
X019483Y004104D01*
X019444Y004120D01*
X019406Y004140D01*
X019371Y004164D01*
X019338Y004190D01*
X019308Y004220D01*
X019280Y004253D01*
X019256Y004287D01*
X019235Y004324D01*
X019217Y004363D01*
X019204Y004403D01*
X019194Y004445D01*
X019188Y004487D01*
X019186Y004529D01*
X010343Y012366D02*
X010345Y012405D01*
X010351Y012444D01*
X010361Y012482D01*
X010374Y012519D01*
X010391Y012554D01*
X010411Y012588D01*
X010435Y012619D01*
X010462Y012648D01*
X010491Y012674D01*
X010523Y012697D01*
X010557Y012717D01*
X010593Y012733D01*
X010630Y012745D01*
X010669Y012754D01*
X010708Y012759D01*
X010747Y012760D01*
X010786Y012757D01*
X010825Y012750D01*
X010862Y012739D01*
X010899Y012725D01*
X010934Y012707D01*
X010967Y012686D01*
X010998Y012661D01*
X011026Y012634D01*
X011051Y012604D01*
X011073Y012571D01*
X011092Y012537D01*
X011107Y012501D01*
X011119Y012463D01*
X011127Y012425D01*
X011131Y012386D01*
X011131Y012346D01*
X011127Y012307D01*
X011119Y012269D01*
X011107Y012231D01*
X011092Y012195D01*
X011073Y012161D01*
X011051Y012128D01*
X011026Y012098D01*
X010998Y012071D01*
X010967Y012046D01*
X010934Y012025D01*
X010899Y012007D01*
X010862Y011993D01*
X010825Y011982D01*
X010786Y011975D01*
X010747Y011972D01*
X010708Y011973D01*
X010669Y011978D01*
X010630Y011987D01*
X010593Y011999D01*
X010557Y012015D01*
X010523Y012035D01*
X010491Y012058D01*
X010462Y012084D01*
X010435Y012113D01*
X010411Y012144D01*
X010391Y012178D01*
X010374Y012213D01*
X010361Y012250D01*
X010351Y012288D01*
X010345Y012327D01*
X010343Y012366D01*
D15*
X019639Y004529D03*
D16*
X010737Y012366D03*
D17*
X019880Y001809D03*
X001465Y001809D03*
D18*
X002118Y001878D03*
X002699Y001878D03*
X003289Y001878D03*
X003880Y001878D03*
X004470Y001878D03*
X005061Y001878D03*
X005661Y001878D03*
X006252Y001878D03*
X006833Y001878D03*
X007433Y001878D03*
X008014Y001878D03*
X008604Y001878D03*
X009195Y001878D03*
X009785Y001878D03*
X010376Y001878D03*
X010966Y001878D03*
X011557Y001878D03*
X012148Y001878D03*
X012738Y001878D03*
X013329Y001878D03*
X013919Y001878D03*
X014510Y001878D03*
X015100Y001878D03*
X015691Y001878D03*
X016281Y001878D03*
X016872Y001878D03*
X017462Y001878D03*
X018053Y001878D03*
X018644Y001878D03*
X019234Y001878D03*
D19*
X019260Y010438D03*
X019850Y010438D03*
D20*
X019867Y009688D03*
X019118Y009688D03*
D21*
X002118Y010067D03*
X002118Y008808D03*
D22*
X012619Y007114D03*
X013525Y007114D03*
X013525Y005658D03*
X012619Y005658D03*
D23*
X012055Y006906D03*
X012055Y007594D03*
D24*
X014057Y005703D03*
X014746Y005703D03*
D25*
X018255Y005801D03*
X019436Y005801D03*
D26*
X018180Y004188D03*
X015555Y003750D03*
X007493Y010625D03*
X007993Y012188D03*
X011743Y011625D03*
X013993Y013000D03*
X002180Y011250D03*
D27*
X006868Y003438D03*
X014058Y005192D03*
M02*
